<?xml version="1.0" encoding="UTF-8"?>
<svg version="1.1" xmlns="http://www.w3.org/2000/svg" width="188" height="168">
<path d="M0 0 C62.04 0 124.08 0 188 0 C188 55.44 188 110.88 188 168 C125.96 168 63.92 168 0 168 C0 112.56 0 57.12 0 0 Z " fill="#F6F6F6" transform="translate(0,0)"/>
<path d="M0 0 C0.87140625 0.00257812 1.7428125 0.00515625 2.640625 0.0078125 C3.93226562 0.00394531 3.93226562 0.00394531 5.25 0 C7.890625 0.1328125 7.890625 0.1328125 10.24804688 0.65869141 C12.93524831 1.14081864 15.10146949 1.08547186 17.8125 0.8515625 C34.0743302 0.04736757 34.0743302 0.04736757 40.90234375 5.734375 C44.55113855 9.25681137 47.80952058 13.06756075 51.01904297 16.98925781 C53.4916694 19.82119886 56.23410673 22.21244356 59.11352539 24.62060547 C63.04162965 27.96319069 64.47997259 30.2121164 65.953125 35.2578125 C66.2934375 36.42183594 66.63375 37.58585937 66.984375 38.78515625 C67.89780187 42.15932362 68.69055946 45.52877388 69.38671875 48.953125 C69.95750668 51.42211465 70.72869249 53.78693302 71.515625 56.1953125 C74.18089575 65.06588029 72.72759459 70.77370018 68.890625 79.1328125 C68.560625 79.1328125 68.230625 79.1328125 67.890625 79.1328125 C68.03147296 77.34074703 68.17846201 75.54916333 68.328125 73.7578125 C68.40933594 72.76007813 68.49054688 71.76234375 68.57421875 70.734375 C68.890625 68.1328125 68.890625 68.1328125 69.890625 66.1328125 C68.900625 66.1328125 67.910625 66.1328125 66.890625 66.1328125 C66.560625 70.7528125 66.230625 75.3728125 65.890625 80.1328125 C66.550625 80.1328125 67.210625 80.1328125 67.890625 80.1328125 C67.71094268 81.67808049 67.51333965 83.22198167 67.265625 84.7578125 C66.9871382 86.52156224 66.7670166 88.29473146 66.578125 90.0703125 C64.96419994 100.5608254 59.59353976 105.52010145 51.890625 112.1328125 C51.13652344 112.80054688 50.38242188 113.46828125 49.60546875 114.15625 C48.32760451 115.27914462 47.03515314 116.38572484 45.7265625 117.47265625 C43.81214156 119.12557569 43.81214156 119.12557569 42.1171875 121.26171875 C37.2193569 127.0378523 33.2883313 128.10192294 25.83203125 128.76953125 C20.73320808 129.23949216 15.7759969 130.20274324 10.75219727 131.16918945 C4.90531304 132.24688871 -0.01353719 132.93419593 -5.546875 130.5078125 C-6.81724609 129.96833984 -6.81724609 129.96833984 -8.11328125 129.41796875 C-9.10199219 128.99386719 -10.09070313 128.56976563 -11.109375 128.1328125 C-13.72885538 127.05647429 -16.35626802 126.00037568 -18.984375 124.9453125 C-19.62689209 124.68347168 -20.26940918 124.42163086 -20.93139648 124.15185547 C-24.53327688 122.67691422 -24.53327688 122.67691422 -28.3125 121.81640625 C-31.3615335 120.65644785 -32.33726661 118.11303886 -33.984375 115.3828125 C-34.76198015 114.11964854 -35.54210478 112.85803346 -36.32421875 111.59765625 C-36.75718262 110.89624512 -37.19014648 110.19483398 -37.63623047 109.47216797 C-40.51380809 104.90257089 -43.54077998 100.43093979 -46.546875 95.9453125 C-47.75391806 94.13933081 -48.96095004 92.33334172 -50.16796875 90.52734375 C-50.68673584 89.75237549 -51.20550293 88.97740723 -51.73999023 88.17895508 C-54.82512689 83.56912618 -55.54341964 80.4456957 -55.76171875 74.9765625 C-55.79484161 74.16588821 -55.82796448 73.35521393 -55.86209106 72.51997375 C-56.90133302 41.4242132 -56.90133302 41.4242132 -45.58203125 28.76953125 C-44.9905127 28.15770996 -44.39899414 27.54588867 -43.78955078 26.91552734 C-41.26558701 24.23752917 -39.22471175 21.26000105 -37.109375 18.2578125 C-31.81764263 11.16771795 -27.90923393 7.53109071 -19.359375 5.3828125 C-14.33970858 4.44877476 -14.33970858 4.44877476 -10.109375 2.1328125 C-7.77604167 1.79947917 -5.44270833 1.46614583 -3.109375 1.1328125 C-2.109375 0.1328125 -2.109375 0.1328125 0 0 Z " fill="#AFAFB1" transform="translate(98.109375,19.8671875)"/>
<path d="M0 0 C0.66 0 1.32 0 2 0 C2.33 1.65 2.66 3.3 3 5 C3.33 3.35 3.66 1.7 4 0 C7.28771612 1.54399753 10.24733837 3.39621687 13.25 5.4375 C14.14203125 6.03433594 15.0340625 6.63117188 15.953125 7.24609375 C16.62859375 7.82488281 17.3040625 8.40367188 18 9 C18 12 18 12 15.6875 14.6875 C13 17 13 17 10 17 C10 17.66 10 18.32 10 19 C8 20 8 20 1 20 C0.67 13.4 0.34 6.8 0 0 Z M-45 13 C-44.67 13 -44.34 13 -44 13 C-44 20.26 -44 27.52 -44 35 C-41.00667261 34.0022242 -40.05233685 33.2477975 -38 31 C-35.76400636 37.92506769 -33.75634954 44.74535115 -32.4296875 51.90234375 C-31.91022549 54.43826283 -31.18841976 56.69743671 -30 59 C-29.34 59.33 -28.68 59.66 -28 60 C-28 61.65 -28 63.3 -28 65 C-19.07327943 60.4416746 -9.93789783 55.37151644 -3 48 C-3.66 47.773125 -4.32 47.54625 -5 47.3125 C-8.20711651 45.90938653 -10.98900751 44.19264158 -13.9296875 42.30859375 C-16.89617306 40.43355099 -19.94164591 38.72032418 -23 37 C-23 36.34 -23 35.68 -23 35 C-23.56203125 34.88785156 -24.1240625 34.77570313 -24.703125 34.66015625 C-27.31513108 33.90942661 -29.39471322 32.78832624 -31.75 31.4375 C-32.54921875 30.98246094 -33.3484375 30.52742188 -34.171875 30.05859375 C-34.77515625 29.70925781 -35.3784375 29.35992187 -36 29 C-35.01 28.34 -34.02 27.68 -33 27 C-32.27554688 27.39832031 -31.55109375 27.79664062 -30.8046875 28.20703125 C-28.81493148 29.29741755 -26.82264665 30.38319932 -24.828125 31.46484375 C-22.75437884 32.59050983 -20.68763096 33.72909391 -18.625 34.875 C-15.85444759 36.06237961 -13.9811476 36.26304244 -11 36 C-10.67 34.68 -10.34 33.36 -10 32 C-8.68 32.33 -7.36 32.66 -6 33 C-6.165 33.7425 -6.33 34.485 -6.5 35.25 C-7.11925696 38.19006578 -7.11925696 38.19006578 -7 42 C-7 42.66 -7 43.32 -7 44 C-5.02 44.33 -3.04 44.66 -1 45 C-0.67 37.74 -0.34 30.48 0 23 C-1.79566406 23.2165625 -3.59132812 23.433125 -5.44140625 23.65625 C-7.8150789 23.93771316 -10.18877824 24.21895134 -12.5625 24.5 C-13.74392578 24.64308594 -14.92535156 24.78617188 -16.14257812 24.93359375 C-21.79570264 25.59866722 -27.30643621 26.20065423 -33 26 C-33.33 24.68 -33.66 23.36 -34 22 C-33.175 22.02320312 -32.35 22.04640625 -31.5 22.0703125 C-23.31516122 22.19820061 -15.58698379 21.5921959 -7.49609375 20.4375 C-4 20 -4 20 1 20 C1.99 32.375 1.99 32.375 3 45 C7.8027952 42.41483306 7.8027952 42.41483306 12.6027832 39.82446289 C13.20437256 39.5021167 13.80596191 39.17977051 14.42578125 38.84765625 C15.03848877 38.51773682 15.65119629 38.18781738 16.2824707 37.84790039 C18 37 18 37 21 36 C21 36.99 21 37.98 21 39 C18.98828125 40.53515625 18.98828125 40.53515625 16.3125 42.0625 C15.44238281 42.56910156 14.57226562 43.07570313 13.67578125 43.59765625 C11 45 11 45 8.23046875 45.99609375 C7.49441406 46.32738281 6.75835937 46.65867188 6 47 C5.67 47.99 5.34 48.98 5 50 C5.54527344 50.09796875 6.09054688 50.1959375 6.65234375 50.296875 C11.70356127 51.29848394 16.03470323 52.80505143 20.68359375 54.99609375 C23.88504072 56.38356739 27.17555912 57.26971636 30.53125 58.20703125 C33.00329413 59.00105808 35.18224953 60.02454422 37.5 61.1875 C42.32726268 63.45864506 46.75444783 63.39423774 52 63 C52.40089844 62.15179688 52.80179687 61.30359375 53.21484375 60.4296875 C57.0257544 52.56590362 61.24400549 45.23563317 66.08203125 37.9609375 C67.56559234 35.67063341 68.86078578 33.47131128 70 31 C71.98 31.495 71.98 31.495 74 32 C74.495 36.455 74.495 36.455 75 41 C75.66 41 76.32 41 77 41 C76.82031768 42.54526799 76.62271465 44.08916917 76.375 45.625 C76.0965132 47.38874974 75.8763916 49.16191896 75.6875 50.9375 C74.07357494 61.4280129 68.70291476 66.38728895 61 73 C60.24589844 73.66773438 59.49179688 74.33546875 58.71484375 75.0234375 C57.43697951 76.14633212 56.14452814 77.25291234 54.8359375 78.33984375 C52.92151656 79.99276319 52.92151656 79.99276319 51.2265625 82.12890625 C46.3287319 87.9050398 42.3977063 88.96911044 34.94140625 89.63671875 C29.84258308 90.10667966 24.8853719 91.06993074 19.86157227 92.03637695 C14.01468804 93.11407621 9.09583781 93.80138343 3.5625 91.375 C2.29212891 90.83552734 2.29212891 90.83552734 0.99609375 90.28515625 C0.00738281 89.86105469 -0.98132813 89.43695313 -2 89 C-4.61948038 87.92366179 -7.24689302 86.86756318 -9.875 85.8125 C-10.51751709 85.55065918 -11.16003418 85.28881836 -11.82202148 85.01904297 C-15.42390188 83.54410172 -15.42390188 83.54410172 -19.203125 82.68359375 C-22.2521585 81.52363535 -23.22789161 78.98022636 -24.875 76.25 C-25.65134056 74.98946274 -26.43016162 73.7304511 -27.2109375 72.47265625 C-27.64374023 71.77156738 -28.07654297 71.07047852 -28.52246094 70.34814453 C-31.42482567 65.735629 -34.4713983 61.21767733 -37.5 56.6875 C-38.12374512 55.7500293 -38.74749023 54.81255859 -39.39013672 53.84667969 C-41.94901955 49.72955542 -41.94901955 49.72955542 -45 46 C-45.08843793 43.55169574 -45.11528752 41.13179401 -45.09765625 38.68359375 C-45.0962413 37.95253922 -45.09482635 37.22148468 -45.09336853 36.46827698 C-45.08775408 34.12464368 -45.07519922 31.78110461 -45.0625 29.4375 C-45.05748686 27.85221492 -45.05292363 26.26692834 -45.04882812 24.68164062 C-45.03777997 20.7877239 -45.02050572 16.89387795 -45 13 Z " fill="#ACADAE" transform="translate(89,59)"/>
<path d="M0 0 C14.89477082 3.3983215 14.89477082 3.3983215 18 6 C18.57198973 8.54069859 18.75279069 10.94569751 18.85546875 13.546875 C19.020259 16.34385544 19.75005594 18.50011188 21 21 C21.99 21 22.98 21 24 21 C28.57001519 33.5348988 30.7984846 41.36758712 25 54 C24.67 54 24.34 54 24 54 C24.14084796 52.20793453 24.28783701 50.41635083 24.4375 48.625 C24.55931641 47.12839844 24.55931641 47.12839844 24.68359375 45.6015625 C25 43 25 43 26 41 C25.01 41 24.02 41 23 41 C22.67 43.97 22.34 46.94 22 50 C21.505 48.02 21.505 48.02 21 46 C19.68 46 18.36 46 17 46 C16.67128906 46.62003906 16.34257812 47.24007812 16.00390625 47.87890625 C12.57176974 54.26881894 8.94484995 60.51003863 5.16040039 66.69555664 C2.91645711 70.38411555 0.87824151 74.10637553 -1 78 C-8.92464756 78.98601606 -14.53547146 76.81243887 -21.69140625 73.515625 C-24.94477132 72.02529956 -28.15382447 70.86153252 -31.55859375 69.7890625 C-34.91914653 68.70293184 -38.23901007 67.50604832 -41.5625 66.3125 C-42.78066406 65.87550781 -43.99882813 65.43851562 -45.25390625 64.98828125 C-46.16011719 64.66214844 -47.06632812 64.33601563 -48 64 C-47.76171875 62.140625 -47.76171875 62.140625 -47 60 C-45.20703125 58.796875 -45.20703125 58.796875 -42.8125 57.75 C-38.39362612 55.69883218 -34.15087922 53.4411209 -29.9375 51 C-29.34066406 50.65678711 -28.74382812 50.31357422 -28.12890625 49.95996094 C-25.48520711 48.43910764 -22.84621348 46.91039889 -20.2109375 45.375 C-19.41945313 44.92125 -18.62796875 44.4675 -17.8125 44 C-16.80123047 43.4121875 -16.80123047 43.4121875 -15.76953125 42.8125 C-14 42 -14 42 -11 42 C-10.67 42.99 -10.34 43.98 -10 45 C-9.25073929 41.33694766 -8.7619986 38.57644848 -10 35 C-10.66 35.66 -11.32 36.32 -12 37 C-13.83863505 35.88368586 -15.67079723 34.75670373 -17.5 33.625 C-18.5209375 32.99851563 -19.541875 32.37203125 -20.59375 31.7265625 C-21.3878125 31.15679687 -22.181875 30.58703125 -23 30 C-23 29.34 -23 28.68 -23 28 C-23.804375 27.731875 -24.60875 27.46375 -25.4375 27.1875 C-26.283125 26.795625 -27.12875 26.40375 -28 26 C-28.33 25.01 -28.66 24.02 -29 23 C-28.34 23 -27.68 23 -27 23 C-26.79375 22.443125 -26.5875 21.88625 -26.375 21.3125 C-24.82697717 18.70900705 -22.92444479 17.1481397 -20.5703125 15.27734375 C-17.54291707 12.8147609 -14.90264809 9.93993138 -12.203125 7.12890625 C-11.57921875 6.48824219 -10.9553125 5.84757812 -10.3125 5.1875 C-9.73113281 4.58292969 -9.14976562 3.97835937 -8.55078125 3.35546875 C-7 2 -7 2 -5 2 C-5.28064918 4.31386295 -5.57481689 6.62609008 -5.875 8.9375 C-6.03742188 10.22527344 -6.19984375 11.51304688 -6.3671875 12.83984375 C-6.57601562 13.88269531 -6.78484375 14.92554688 -7 16 C-7.99 16.495 -7.99 16.495 -9 17 C-8.505 19.475 -8.505 19.475 -8 22 C-7.01 21.67 -6.02 21.34 -5 21 C-5.04125 19.72125 -5.0825 18.4425 -5.125 17.125 C-5.14157783 11.91127144 -4.18311358 7.05992328 -3 2 C-2.01 2.66 -1.02 3.32 0 4 C0 2.68 0 1.36 0 0 Z " fill="#B2B3B4" transform="translate(142,45)"/>
<path d="M0 0 C4.710598 0.91172864 9.07073453 1.9281123 13.5 3.78125 C19.64299931 6.28957481 25.87676448 8.51952523 32.125 10.75 C33.27226563 11.16121094 34.41953125 11.57242188 35.6015625 11.99609375 C38.40046058 12.99903223 41.19994395 14.00029999 44 15 C44 15.99 44 16.98 44 18 C45.98 18 47.96 18 50 18 C50.495 16.515 50.495 16.515 51 15 C52.99609375 14.05078125 52.99609375 14.05078125 55.4375 13.3125 C56.64212891 12.93544922 56.64212891 12.93544922 57.87109375 12.55078125 C60 12 60 12 62 12 C62 12.66 62 13.32 62 14 C60.53125 15.4453125 60.53125 15.4453125 58.5 17.125 C54.09475988 20.8615876 50.03400765 24.86943366 46 29 C45.01 28.67 44.02 28.34 43 28 C42.80148438 28.78890625 42.60296875 29.5778125 42.3984375 30.390625 C41 33 41 33 38.1640625 34.109375 C36.99617188 34.32078125 35.82828125 34.5321875 34.625 34.75 C33.3771875 34.97816406 32.129375 35.20632812 30.84375 35.44140625 C25.5726781 36.20742585 20.31812901 36.71753527 15 37 C15 36.34 15 35.68 15 35 C13.8553125 35.495 13.8553125 35.495 12.6875 36 C10 37 10 37 7 37 C5.99469337 32.6968904 4.99808244 28.39188458 4.00927734 24.08496094 C3.67210934 22.62185224 3.33262321 21.15927565 2.99072266 19.69726562 C2.49803436 17.58861718 2.01387571 15.4781588 1.53125 13.3671875 C1.23798828 12.09987793 0.94472656 10.83256836 0.64257812 9.52685547 C0.04616758 6.25339548 -0.12497649 3.3163403 0 0 Z " fill="#F5F4F5" transform="translate(92,111)"/>
<path d="M0 0 C0.66 0 1.32 0 2 0 C2.33 1.65 2.66 3.3 3 5 C3.33 3.35 3.66 1.7 4 0 C7.28771612 1.54399753 10.24733837 3.39621687 13.25 5.4375 C14.14203125 6.03433594 15.0340625 6.63117188 15.953125 7.24609375 C16.62859375 7.82488281 17.3040625 8.40367188 18 9 C18 12 18 12 15.6875 14.6875 C13 17 13 17 10 17 C10 17.66 10 18.32 10 19 C8 20 8 20 1 20 C0.67 13.4 0.34 6.8 0 0 Z M1 20 C1.99 32.375 1.99 32.375 3 45 C7.8027952 42.41483306 7.8027952 42.41483306 12.6027832 39.82446289 C13.20437256 39.5021167 13.80596191 39.17977051 14.42578125 38.84765625 C15.03848877 38.51773682 15.65119629 38.18781738 16.2824707 37.84790039 C18 37 18 37 21 36 C21 36.99 21 37.98 21 39 C18.98828125 40.53515625 18.98828125 40.53515625 16.3125 42.0625 C15.44238281 42.56910156 14.57226562 43.07570313 13.67578125 43.59765625 C11 45 11 45 8.23046875 45.99609375 C7.49441406 46.32738281 6.75835937 46.65867187 6 47 C5.505 48.485 5.505 48.485 5 50 C5.54527344 50.09796875 6.09054688 50.1959375 6.65234375 50.296875 C11.70356127 51.29848394 16.03470323 52.80505143 20.68359375 54.99609375 C23.88504072 56.38356739 27.17555912 57.26971636 30.53125 58.20703125 C33.00329413 59.00105808 35.18224953 60.02454422 37.5 61.1875 C42.32726268 63.45864506 46.75444783 63.39423774 52 63 C52.40089844 62.15179688 52.80179687 61.30359375 53.21484375 60.4296875 C57.0257544 52.56590362 61.24400549 45.23563317 66.08203125 37.9609375 C67.56559234 35.67063341 68.86078578 33.47131128 70 31 C71.32 31.33 72.64 31.66 74 32 C74.495 36.455 74.495 36.455 75 41 C75.66 41 76.32 41 77 41 C75.28571429 54.71428571 75.28571429 54.71428571 72 58 C72 50.41 72 42.82 72 35 C67.32511831 41.96262554 67.32511831 41.96262554 62.9375 49.0625 C60.66816102 52.90061686 58.31706147 56.67067297 55.8828125 60.40625 C54.83848323 61.98793426 54.83848323 61.98793426 55 64 C57.97 63.34 60.94 62.68 64 62 C63.67 62.99 63.34 63.98 63 65 C61.0390625 65.84375 61.0390625 65.84375 58.625 66.5 C55.14238483 67.45289796 53.49439133 68.43330747 51 71 C48.8125 70.6875 48.8125 70.6875 47 70 C47 69.01 47 68.02 47 67 C45.845 66.79375 44.69 66.5875 43.5 66.375 C32.83382709 64.0066057 22.59717837 59.2877353 12.57421875 55.03515625 C9.42023721 53.76686322 6.29516508 52.82379127 3 52 C3.144375 52.70125 3.28875 53.4025 3.4375 54.125 C4.56097355 59.86719815 5.2206715 65.15220515 5 71 C2.73155961 67.59733941 2.19810007 64.9907882 1.375 61 C1.11460938 59.7625 0.85421875 58.525 0.5859375 57.25 C0 54 0 54 0 51 C-0.94875 51.66 -1.8975 52.32 -2.875 53 C-6 55 -6 55 -8 55 C-8 55.66 -8 56.32 -8 57 C-12.66666667 59.66666667 -17.33333333 62.33333333 -22 65 C-22.66 64.34 -23.32 63.68 -24 63 C-23.31035156 62.56429687 -22.62070313 62.12859375 -21.91015625 61.6796875 C-17.21703154 58.70544386 -12.52897912 55.72270377 -7.875 52.6875 C-7.15054688 52.21699219 -6.42609375 51.74648437 -5.6796875 51.26171875 C-3.85860703 50.08933758 -3.85860703 50.08933758 -3 48 C-3.66 47.773125 -4.32 47.54625 -5 47.3125 C-8.20711651 45.90938653 -10.98900751 44.19264158 -13.9296875 42.30859375 C-16.89617306 40.43355099 -19.94164591 38.72032418 -23 37 C-23 36.34 -23 35.68 -23 35 C-23.56203125 34.88785156 -24.1240625 34.77570313 -24.703125 34.66015625 C-27.31513108 33.90942661 -29.39471322 32.78832624 -31.75 31.4375 C-32.54921875 30.98246094 -33.3484375 30.52742188 -34.171875 30.05859375 C-34.77515625 29.70925781 -35.3784375 29.35992187 -36 29 C-35.01 28.34 -34.02 27.68 -33 27 C-32.27554688 27.39832031 -31.55109375 27.79664062 -30.8046875 28.20703125 C-28.81493148 29.29741755 -26.82264665 30.38319932 -24.828125 31.46484375 C-22.75437884 32.59050983 -20.68763096 33.72909391 -18.625 34.875 C-15.85444759 36.06237961 -13.9811476 36.26304244 -11 36 C-10.67 34.68 -10.34 33.36 -10 32 C-8.68 32.33 -7.36 32.66 -6 33 C-6.165 33.7425 -6.33 34.485 -6.5 35.25 C-7.11925696 38.19006578 -7.11925696 38.19006578 -7 42 C-7 42.66 -7 43.32 -7 44 C-5.02 44.33 -3.04 44.66 -1 45 C-0.67 37.74 -0.34 30.48 0 23 C-1.79566406 23.2165625 -3.59132812 23.433125 -5.44140625 23.65625 C-7.8150789 23.93771316 -10.18877824 24.21895134 -12.5625 24.5 C-13.74392578 24.64308594 -14.92535156 24.78617187 -16.14257812 24.93359375 C-21.79570264 25.59866722 -27.30643621 26.20065423 -33 26 C-33.33 24.68 -33.66 23.36 -34 22 C-33.175 22.02320312 -32.35 22.04640625 -31.5 22.0703125 C-23.31516122 22.19820061 -15.58698379 21.5921959 -7.49609375 20.4375 C-4 20 -4 20 1 20 Z " fill="#B1B1B3" transform="translate(89,59)"/>
<path d="M0 0 C11.83345747 1.93253332 24.48466641 11.43169796 35 17 C35 17.66 35 18.32 35 19 C28.82802838 21.15131329 22.76015719 23.14022282 16.3515625 24.43359375 C13.45500239 25.13127019 10.69009736 26.08804322 7.875 27.0625 C3.53565853 28.55518907 -0.43638301 29.58512573 -5 30 C-4.31035294 23.47487783 -3.46673919 16.98959578 -2.5 10.5 C-2.30470703 9.14261719 -2.30470703 9.14261719 -2.10546875 7.7578125 C-1.97785156 6.89929688 -1.85023437 6.04078125 -1.71875 5.15625 C-1.60466797 4.38087891 -1.49058594 3.60550781 -1.37304688 2.80664062 C-1 1 -1 1 0 0 Z " fill="#F4F4F6" transform="translate(99,24)"/>
<path d="M0 0 C9.7901506 3.09162651 18.88581832 7.3019682 28 12 C24.38563433 15.85305019 20.57112453 18.82448735 16.125 21.6875 C14.80326769 22.5532057 13.48165695 23.41909704 12.16015625 24.28515625 C11.48098145 24.72746582 10.80180664 25.16977539 10.10205078 25.62548828 C6.57219417 27.93362913 3.06872541 30.28118747 -0.4375 32.625 C-1.70691142 33.47153388 -2.97643142 34.31790499 -4.24609375 35.1640625 C-5.15488281 35.76992187 -6.06367187 36.37578125 -7 37 C-8.35939597 34.28120805 -7.73501545 32.89979917 -7.109375 29.94140625 C-6.89410156 28.91466797 -6.67882813 27.88792969 -6.45703125 26.83007812 C-6.22371094 25.75177734 -5.99039063 24.67347656 -5.75 23.5625 C-5.53214844 22.51900391 -5.31429687 21.47550781 -5.08984375 20.40039062 C-3.63094343 13.5282023 -1.92435383 6.75622829 0 0 Z " fill="#F4F4F5" transform="translate(61,44)"/>
<path d="M0 0 C0.99457045 3.91291524 1.96770574 7.8308772 2.9375 11.75 C3.35418945 13.38775391 3.35418945 13.38775391 3.77929688 15.05859375 C5.57667877 22.37805255 6.61275398 29.47295861 7 37 C2.98290865 36.13541214 0.00905728 34.25242777 -3.375 32 C-4.61447293 31.18863341 -5.85405986 30.37744094 -7.09375 29.56640625 C-7.73183594 29.14633301 -8.36992188 28.72625977 -9.02734375 28.29345703 C-12.29465604 26.15110301 -15.58578053 24.04599579 -18.875 21.9375 C-20.06000719 21.17595449 -21.24491346 20.41425193 -22.4296875 19.65234375 C-23.70199219 18.83443359 -23.70199219 18.83443359 -25 18 C-23.49821378 13.99818144 -21.20119996 12.52245735 -17.625 10.3125 C-16.66851562 9.71050781 -15.71203125 9.10851562 -14.7265625 8.48828125 C-12.40004161 7.21836082 -10.58489435 6.45940065 -8 6 C-8 5.34 -8 4.68 -8 4 C-2.58823529 0 -2.58823529 0 0 0 Z " fill="#F3F4F4" transform="translate(89,110)"/>
<path d="M0 0 C4.49797113 1.68673918 8.72886302 3.81673892 13 6 C13 6.66 13 7.32 13 8 C13.639375 8.226875 14.27875 8.45375 14.9375 8.6875 C21.34742354 11.43461009 27.27523627 15.03670203 33 19 C31.68524307 22.94427079 29.97074084 23.5907 26.5 25.8125 C25.41847656 26.50988281 24.33695313 27.20726563 23.22265625 27.92578125 C22.15917969 28.61027344 21.09570312 29.29476562 20 30 C17.60807546 31.64900458 15.21971137 33.30239949 12.83984375 34.96875 C11 36 11 36 8 36 C7.34964629 33.48025747 6.70462507 30.95934065 6.0625 28.4375 C5.88009766 27.73302734 5.69769531 27.02855469 5.50976562 26.30273438 C4.38959411 21.8831486 3.61387559 17.52387596 3 13 C2.34416793 10.66359824 1.67784992 8.33010909 1 6 C0.63729412 4.00511766 0.29359301 2.0062189 0 0 Z " fill="#F4F4F5" transform="translate(53,88)"/>
<path d="M0 0 C0.66 0.33 1.32 0.66 2 1 C2 1.99 2 2.98 2 4 C2.66 4 3.32 4 4 4 C5.15625 5.625 5.15625 5.625 6.5 8 C8.45249866 11.38304223 10.44321946 14.72497327 12.546875 18.015625 C12.99224609 18.71429688 13.43761719 19.41296875 13.89648438 20.1328125 C14.78399222 21.52106431 15.67577862 22.90659214 16.57226562 24.2890625 C16.98669922 24.94132812 17.40113281 25.59359375 17.828125 26.265625 C18.1984082 26.84086914 18.56869141 27.41611328 18.95019531 28.00878906 C20 30 20 30 22 36 C13.09 36 4.18 36 -5 36 C-4.87625 33.56625 -4.7525 31.1325 -4.625 28.625 C-4.59100098 27.86010254 -4.55700195 27.09520508 -4.52197266 26.30712891 C-4.22222222 21.22222222 -4.22222222 21.22222222 -2 19 C-2 16.86578373 -2.00699446 14.73115062 -2.0625 12.59765625 C-1.9589203 8.29262489 -0.97743657 4.18028674 0 0 Z " fill="#F4F3F4" transform="translate(139,47)"/>
<path d="M0 0 C8.91 0 17.82 0 27 0 C25.9949531 4.02018762 24.63621954 6.6062401 22.54296875 10.15625 C22.02661613 11.03247009 22.02661613 11.03247009 21.49983215 11.9263916 C20.77186595 13.15831699 20.04131365 14.38871741 19.30834961 15.61767578 C18.19402082 17.48904911 17.09167904 19.3671153 15.99023438 21.24609375 C15.27936119 22.44573669 14.56779504 23.64496932 13.85546875 24.84375 C13.21246826 25.92849609 12.56946777 27.01324219 11.90698242 28.13085938 C10.14223117 30.78600683 8.34064783 32.85069729 6 35 C4.06000272 30.82900585 3.46707273 26.77656253 3 22.25 C2.49043724 17.71797969 1.93857088 13.25403191 0.875 8.8125 C0 5 0 5 0 0 Z " fill="#F5F5F6" transform="translate(134,86)"/>
<path d="M0 0 C5.36408912 -0.67914433 9.10587919 -0.92932879 13.54882812 2.25634766 C18.23458098 6.38280107 22.36914618 10.96964717 26.48095703 15.65771484 C28.90635738 18.29212405 31.50571434 20.46689726 34.328125 22.6640625 C33.833125 24.1490625 33.833125 24.1490625 33.328125 25.6640625 C30.24797731 24.9101802 27.19024689 24.09595249 24.140625 23.2265625 C23.26019531 22.98035156 22.37976563 22.73414062 21.47265625 22.48046875 C19.328125 21.6640625 19.328125 21.6640625 18.328125 19.6640625 C16.50659422 19.19666901 16.50659422 19.19666901 14.328125 18.9140625 C9.64964256 17.97248113 6.68984562 16.07461485 2.859375 13.31640625 C-1.08649906 10.74062735 -5.34930759 8.94678227 -9.65625 7.05859375 C-12.47191393 5.75653155 -15.08043891 4.36769178 -17.671875 2.6640625 C-17.671875 2.3340625 -17.671875 2.0040625 -17.671875 1.6640625 C-14.35421869 1.37779323 -11.04424502 1.13342292 -7.71875 0.953125 C-5.05141825 0.80096178 -2.65275279 0.47975316 0 0 Z " fill="#AEAFB0" transform="translate(122.671875,21.3359375)"/>
<path d="M0 0 C3.17073097 2.15013402 5.4102354 4.90848198 7.84765625 7.83984375 C8.34587891 8.41734375 8.84410156 8.99484375 9.35742188 9.58984375 C11.81061612 12.50571642 13.4300273 14.72970036 14.16015625 18.46484375 C14.82015625 18.46484375 15.48015625 18.46484375 16.16015625 18.46484375 C17.44921875 19.99609375 17.44921875 19.99609375 18.78515625 21.96484375 C19.23117188 22.61453125 19.6771875 23.26421875 20.13671875 23.93359375 C20.47445312 24.43890625 20.8121875 24.94421875 21.16015625 25.46484375 C15.40730382 25.08132025 11.09035203 23.18457716 5.90625 20.72265625 C2.8870127 19.3397339 -0.13097111 18.28728438 -3.29296875 17.2890625 C-6.68846135 16.19021444 -10.04397979 14.98370953 -13.40234375 13.77734375 C-14.62050781 13.34035156 -15.83867188 12.90335938 -17.09375 12.453125 C-17.99996094 12.12699219 -18.90617187 11.80085938 -19.83984375 11.46484375 C-19.62890625 9.625 -19.62890625 9.625 -18.83984375 7.46484375 C-16.80078125 6.0859375 -16.80078125 6.0859375 -14.21484375 4.90234375 C-13.3125 4.48726563 -12.41015625 4.0721875 -11.48046875 3.64453125 C-10.6090625 3.25523438 -9.73765625 2.8659375 -8.83984375 2.46484375 C-8.1540625 2.11679688 -7.46828125 1.76875 -6.76171875 1.41015625 C-2.44434554 -0.71098798 -2.44434554 -0.71098798 0 0 Z " fill="#F4F4F5" transform="translate(113.83984375,97.53515625)"/>
<path d="M0 0 C0 0.66 0 1.32 0 2 C-1.46875 3.4453125 -1.46875 3.4453125 -3.5 5.125 C-7.90524012 8.8615876 -11.96599235 12.86943366 -16 17 C-16.99 16.67 -17.98 16.34 -19 16 C-19.19851562 16.78890625 -19.39703125 17.5778125 -19.6015625 18.390625 C-21 21 -21 21 -23.8359375 22.109375 C-25.00382812 22.32078125 -26.17171875 22.5321875 -27.375 22.75 C-28.6228125 22.97816406 -29.870625 23.20632812 -31.15625 23.44140625 C-36.4273219 24.20742585 -41.68187099 24.71753527 -47 25 C-47 24.34 -47 23.68 -47 23 C-47.66 22.67 -48.32 22.34 -49 22 C-46.62120849 20.5727251 -44.24236964 19.14553003 -41.86328125 17.71875 C-40.02641501 16.61612906 -38.19040028 15.51208761 -36.35546875 14.40625 C-22.885 6.295 -22.885 6.295 -19 5 C-18.67 4.34 -18.34 3.68 -18 3 C-18 3.99 -18 4.98 -18 6 C-16.02 6 -14.04 6 -12 6 C-11.67 5.01 -11.34 4.02 -11 3 C-9.00390625 2.05078125 -9.00390625 2.05078125 -6.5625 1.3125 C-5.75941406 1.06113281 -4.95632812 0.80976562 -4.12890625 0.55078125 C-2 0 -2 0 0 0 Z " fill="#AEADAE" transform="translate(154,123)"/>
<path d="M0 0 C-0.79903622 9.74824187 -2.42524017 19.353358 -4 29 C-9.60128457 28.03320465 -14.48727517 25.85316413 -19.6875 23.625 C-20.64978516 23.22539063 -21.61207031 22.82578125 -22.60351562 22.4140625 C-23.52197266 22.0221875 -24.44042969 21.6303125 -25.38671875 21.2265625 C-26.22420654 20.87158691 -27.06169434 20.51661133 -27.92456055 20.15087891 C-30 19 -30 19 -32 16 C-29.12696196 13.65900605 -26.485216 12.24472 -23 11 C-21.989375 10.608125 -20.97875 10.21625 -19.9375 9.8125 C-17.02139072 9.00591658 -15.76927698 8.93489347 -13 10 C-13 11.98 -13 13.96 -13 16 C-11.68 16 -10.36 16 -9 16 C-8.96261719 15.33613281 -8.92523438 14.67226563 -8.88671875 13.98828125 C-8.21667524 4.9886773 -8.21667524 4.9886773 -5 1 C-3 0 -3 0 0 0 Z " fill="#F3F2F2" transform="translate(96,25)"/>
<path d="M0 0 C0 7.26 0 14.52 0 22 C-3 23 -3 23 -5.0625 22.4375 C-7.79007734 20.41381358 -8.1621442 18.21178058 -9 15 C-8.34 15 -7.68 15 -7 15 C-7 13.35 -7 11.7 -7 10 C-7.99 10 -8.98 10 -10 10 C-10.33 10.99 -10.66 11.98 -11 13 C-15.10698464 14.18176112 -17.07182225 13.89339478 -20.8125 11.875 C-21.67230469 11.41351563 -22.53210938 10.95203125 -23.41796875 10.4765625 C-31.24660609 5.99967156 -31.24660609 5.99967156 -34 4 C-34 3.67 -34 3.34 -34 3 C-30.20967983 2.48943383 -26.41757378 1.99352367 -22.625 1.5 C-21.56410156 1.35691406 -20.50320312 1.21382813 -19.41015625 1.06640625 C-17.83427734 0.86337891 -17.83427734 0.86337891 -16.2265625 0.65625 C-15.27346191 0.53056641 -14.32036133 0.40488281 -13.33837891 0.27539062 C-8.9063594 -0.09021695 -4.44707384 0 0 0 Z " fill="#F4F3F4" transform="translate(89,82)"/>
<path d="M0 0 C-0.28064918 2.31386295 -0.57481689 4.62609008 -0.875 6.9375 C-1.03742188 8.22527344 -1.19984375 9.51304688 -1.3671875 10.83984375 C-1.57601562 11.88269531 -1.78484375 12.92554688 -2 14 C-2.99 14.495 -2.99 14.495 -4 15 C-3.97679687 15.68964844 -3.95359375 16.37929688 -3.9296875 17.08984375 C-3.80808826 23.42168979 -4.39336375 28.87469929 -6 35 C-7.7049381 34.03052539 -9.40926162 33.059942 -11.109375 32.08203125 C-12.71073998 31.16554757 -14.3229941 30.26813092 -15.9375 29.375 C-16.618125 28.92125 -17.29875 28.4675 -18 28 C-18 27.34 -18 26.68 -18 26 C-18.804375 25.731875 -19.60875 25.46375 -20.4375 25.1875 C-21.283125 24.795625 -22.12875 24.40375 -23 24 C-23.33 23.01 -23.66 22.02 -24 21 C-23.34 21 -22.68 21 -22 21 C-21.79375 20.443125 -21.5875 19.88625 -21.375 19.3125 C-19.82697717 16.70900705 -17.92444479 15.1481397 -15.5703125 13.27734375 C-12.54291707 10.8147609 -9.90264809 7.93993138 -7.203125 5.12890625 C-6.57921875 4.48824219 -5.9553125 3.84757812 -5.3125 3.1875 C-4.73113281 2.58292969 -4.14976562 1.97835937 -3.55078125 1.35546875 C-2 0 -2 0 0 0 Z " fill="#F3F3F3" transform="translate(137,47)"/>
<path d="M0 0 C0 6.27 0 12.54 0 19 C-22.91489362 22.57446809 -22.91489362 22.57446809 -32 22 C-28.11160085 17.82468984 -23.92718973 14.71656822 -19.1875 11.5625 C-14.76340095 8.58216522 -10.38886342 5.60461313 -6.1875 2.3125 C-3 0 -3 0 0 0 Z " fill="#F4F4F5" transform="translate(90,60)"/>
<path d="M0 0 C5.04287383 3.36191588 8.79938284 7.85858307 12 13 C12 13.66 12 14.32 12 15 C9.23456804 16.51012131 6.46183193 18.00630148 3.6875 19.5 C2.90181641 19.92925781 2.11613281 20.35851562 1.30664062 20.80078125 C0.1706543 21.40986328 0.1706543 21.40986328 -0.98828125 22.03125 C-1.68477783 22.40830078 -2.38127441 22.78535156 -3.09887695 23.17382812 C-5 24 -5 24 -8 24 C-8 16.41 -8 8.82 -8 1 C-5.09704195 -0.45147903 -3.22738221 -0.37239025 0 0 Z " fill="#F3F2F3" transform="translate(99,80)"/>
<path d="M0 0 C0.86252919 3.87602877 1.71672451 7.75379394 2.56347656 11.63330078 C2.99371672 13.59633166 3.43040515 15.55794567 3.8671875 17.51953125 C4.13789063 18.76347656 4.40859375 20.00742188 4.6875 21.2890625 C4.93886719 22.43068848 5.19023437 23.57231445 5.44921875 24.74853516 C5.98367275 27.9036142 6.10148401 30.80748223 6 34 C-0.19245606 27.99519412 -5.71977948 21.50623911 -11 14.6875 C-11.78375 13.68074219 -12.5675 12.67398438 -13.375 11.63671875 C-13.91125 10.76660156 -14.4475 9.89648438 -15 9 C-13.69331354 5.07994061 -12.21332305 4.71967958 -8.625 2.8125 C-7.15933594 2.01779297 -7.15933594 2.01779297 -5.6640625 1.20703125 C-3 0 -3 0 0 0 Z " fill="#F3F4F4" transform="translate(131,87)"/>
<path d="M0 0 C-2.78406822 2.67469729 -5.57846439 5.33834553 -8.375 8 C-9.1690625 8.763125 -9.963125 9.52625 -10.78125 10.3125 C-11.54179688 11.034375 -12.30234375 11.75625 -13.0859375 12.5 C-14.1385376 13.50546875 -14.1385376 13.50546875 -15.21240234 14.53125 C-17 16 -17 16 -19 16 C-19.33 16.99 -19.66 17.98 -20 19 C-22.10546875 19.77734375 -22.10546875 19.77734375 -25 20 C-27.33368942 18.59744388 -29.23783119 17.27416479 -31.3125 15.5625 C-31.86228516 15.12873047 -32.41207031 14.69496094 -32.97851562 14.24804688 C-34.32975541 13.17880496 -35.66638214 12.09114189 -37 11 C-36.67 10.01 -36.34 9.02 -36 8 C-33.53673728 7.20315118 -31.2089538 6.59688396 -28.6875 6.0625 C-22.50019445 4.64606209 -16.54039428 2.95847095 -10.55078125 0.83203125 C-3.95665635 -1.31888545 -3.95665635 -1.31888545 0 0 Z " fill="#F2F3F3" transform="translate(133,47)"/>
<path d="M0 0 C3.33075953 1.57896855 6.39485589 3.45413185 9.5 5.4375 C10.90765625 6.33275391 10.90765625 6.33275391 12.34375 7.24609375 C14.6322267 8.75716145 16.82932625 10.32591906 19 12 C18 15 18 15 15.890625 16.31640625 C15.01921875 16.72761719 14.1478125 17.13882813 13.25 17.5625 C12.38890625 17.97628906 11.5278125 18.39007813 10.640625 18.81640625 C8.11729029 19.94742758 5.57571207 20.99473108 3 22 C3 21.34 3 20.68 3 20 C2.01 19.67 1.02 19.34 0 19 C-1.859375 17.109375 -1.859375 17.109375 -3.75 14.75 C-4.38421875 13.98171875 -5.0184375 13.2134375 -5.671875 12.421875 C-7 10 -7 10 -6.89453125 7.37890625 C-5.48625412 3.63375004 -3.1683335 2.35939729 0 0 Z " fill="#F3F3F3" transform="translate(110,71)"/>
<path d="M0 0 C1.98 0 3.96 0 6 0 C6.33 0.99 6.66 1.98 7 3 C8.01320312 3.18175781 8.01320312 3.18175781 9.046875 3.3671875 C10.38492188 3.61855469 10.38492188 3.61855469 11.75 3.875 C12.63171875 4.03742187 13.5134375 4.19984375 14.421875 4.3671875 C16.86947744 4.96796264 18.80599857 5.77997117 21 7 C21 6.34 21 5.68 21 5 C24.909195 6.48279811 26.20765135 8.2594463 28 12 C29.68213693 16.76091048 31 20.92108293 31 26 C29.68 26.33 28.36 26.66 27 27 C24.91613111 21.72086547 24.42089996 16.60461531 24 11 C22.27255984 10.34956281 20.5429631 9.70485156 18.8125 9.0625 C17.84957031 8.70285156 16.88664062 8.34320313 15.89453125 7.97265625 C13.2631722 7.08843438 10.73105092 6.47431414 8 6 C7.67 7.32 7.34 8.64 7 10 C6.34 9.34 5.68 8.68 5 8 C3.3722167 14.14778871 2.79809911 19.64012196 3 26 C1.02 26.99 1.02 26.99 -1 28 C-1.66 27.34 -2.32 26.68 -3 26 C-2.625 23.375 -2.625 23.375 -2 21 C-1.34 21 -0.68 21 0 21 C-0.04125 19.80375 -0.0825 18.6075 -0.125 17.375 C-0.13851708 13.57670047 0.57990247 10.55024382 2 7 C1.45730469 7.49371094 0.91460937 7.98742188 0.35546875 8.49609375 C-0.35996094 9.13675781 -1.07539063 9.77742188 -1.8125 10.4375 C-2.87404297 11.39462891 -2.87404297 11.39462891 -3.95703125 12.37109375 C-6 14 -6 14 -9 15 C-7.55922954 11.63820226 -5.75249979 9.40843732 -3 7 C-2.34 7 -1.68 7 -1 7 C-1 6.34 -1 5.68 -1 5 C-1.66 4.67 -2.32 4.34 -3 4 C-2.01 3.67 -1.02 3.34 0 3 C0 2.01 0 1.02 0 0 Z " fill="#A7A5A7" transform="translate(135,40)"/>
<path d="M0 0 C1.32 0.33 2.64 0.66 4 1 C4.495 5.455 4.495 5.455 5 10 C5.66 10 6.32 10 7 10 C5.28571429 23.71428571 5.28571429 23.71428571 2 27 C2 19.41 2 11.82 2 4 C-2.67488169 10.96262554 -2.67488169 10.96262554 -7.0625 18.0625 C-9.33183898 21.90061686 -11.68293853 25.67067297 -14.1171875 29.40625 C-15.16151677 30.98793426 -15.16151677 30.98793426 -15 33 C-12.03 32.34 -9.06 31.68 -6 31 C-6.33 31.99 -6.66 32.98 -7 34 C-8.9609375 34.84375 -8.9609375 34.84375 -11.375 35.5 C-14.85761517 36.45289796 -16.50560867 37.43330747 -19 40 C-21.1875 39.6875 -21.1875 39.6875 -23 39 C-23 38.01 -23 37.02 -23 36 C-23.54527344 35.90203125 -24.09054688 35.8040625 -24.65234375 35.703125 C-30.51809047 34.54000257 -35.63118344 32.61460097 -41 30 C-41 29.67 -41 29.34 -41 29 C-36.58830046 28.67719272 -33.96351282 29.44049836 -30.01171875 31.33203125 C-26.12853261 32.62139985 -22.04035497 32.21949615 -18 32 C-17.59910156 31.15179688 -17.19820312 30.30359375 -16.78515625 29.4296875 C-12.9742456 21.56590362 -8.75599451 14.23563317 -3.91796875 6.9609375 C-2.43440766 4.67063341 -1.13921422 2.47131128 0 0 Z " fill="#AEADAF" transform="translate(159,90)"/>
<path d="M0 0 C1.87712818 0.42827682 3.75162658 0.8680866 5.625 1.3125 C6.66914063 1.55613281 7.71328125 1.79976562 8.7890625 2.05078125 C15.02524772 3.89432505 15.02524772 3.89432505 18 6 C18.81192887 8.93162103 19.19652816 11.14950976 19.375 14.125 C19.44187012 14.88675537 19.50874023 15.64851074 19.57763672 16.43334961 C20.00411363 21.62695215 20.18942961 26.79068581 20 32 C16.79709909 29.05584873 14.73723207 26.10559281 12.625 22.3125 C10.01033387 17.71158535 7.25625038 13.28562891 4.2890625 8.90625 C0 2.56363636 0 2.56363636 0 0 Z " fill="#F2F3F3" transform="translate(142,45)"/>
<path d="M0 0 C0.33 0 0.66 0 1 0 C0.76253783 3.0870082 0.52108008 6.17285656 0.2578125 9.2578125 C0.08909793 11.70673007 -0.00251074 14.16247086 -0.0078125 16.6171875 C-0.14218976 25.08295478 -0.14218976 25.08295478 -2.52734375 27.6328125 C-4.68072548 28.7841255 -6.62699526 29.42652385 -9 30 C-9.8353125 30.21785156 -10.670625 30.43570313 -11.53125 30.66015625 C-13.68121553 31.17383472 -15.82349661 31.61709663 -18 32 C-17.35605421 28.6742094 -16.10750154 26.29725311 -14.3125 23.4375 C-12.0609581 19.7854775 -9.95159528 16.10066885 -7.9375 12.3125 C-5.57382223 7.93347592 -3.05561942 3.92865354 0 0 Z " fill="#F3F3F4" transform="translate(161,92)"/>
<path d="M0 0 C9.34956835 0.51515793 18.68180768 1.05409279 28 2 C28.6700834 4.12392506 29.33596797 6.24917524 30 8.375 C30.37125 9.55835938 30.7425 10.74171875 31.125 11.9609375 C32 15 32 15 32 17 C27.64677154 15.69725608 24.05624983 13.99700458 20.1875 11.625 C15.85387673 9.03342876 11.55814501 6.80724598 6.9140625 4.83984375 C4.46441981 3.76500053 2.21383762 2.49969645 0 1 C0 0.67 0 0.34 0 0 Z " fill="#F1F1F3" transform="translate(105,23)"/>
<path d="M0 0 C0.33 1.32 0.66 2.64 1 4 C-0.32 4.99 -1.64 5.98 -3 7 C-2.66506307 12.3589909 0.57127181 16.10743856 4 20 C4.66 20.33 5.32 20.66 6 21 C6 21.66 6 22.32 6 23 C6.80824219 22.50628906 7.61648437 22.01257813 8.44921875 21.50390625 C9.51785156 20.86324219 10.58648437 20.22257812 11.6875 19.5625 C12.74324219 18.92441406 13.79898438 18.28632812 14.88671875 17.62890625 C17.71009314 16.15168276 19.86866977 15.41247578 23 15 C23 14.34 23 13.68 23 13 C23.66 13 24.32 13 25 13 C25 11.35 25 9.7 25 8 C25.33 8 25.66 8 26 8 C26 9.98 26 11.96 26 14 C34.91 14 43.82 14 53 14 C53 14.33 53 14.66 53 15 C44.09 15 35.18 15 26 15 C26 16.98 26 18.96 26 21 C25.34 20.67 24.68 20.34 24 20 C24 19.01 24 18.02 24 17 C22.90300781 17.55429688 21.80601562 18.10859375 20.67578125 18.6796875 C19.22140813 19.41156558 17.76697804 20.14333045 16.3125 20.875 C15.59126953 21.23980469 14.87003906 21.60460937 14.12695312 21.98046875 C10.46874636 23.8179242 6.8388305 25.56138502 3 27 C2.87431641 25.92492187 2.87431641 25.92492187 2.74609375 24.828125 C1.83628723 21.37943432 0.32912874 19.48798915 -1.9375 16.75 C-2.64777344 15.87859375 -3.35804687 15.0071875 -4.08984375 14.109375 C-6.09434321 11.89581731 -6.97186088 11.05161341 -9.9453125 10.90234375 C-10.66460937 10.91394531 -11.38390625 10.92554687 -12.125 10.9375 C-13.40375 10.958125 -14.6825 10.97875 -16 11 C-16 14.63 -16 18.26 -16 22 C-16.33 22 -16.66 22 -17 22 C-17 18.37 -17 14.74 -17 11 C-17.66 10.67 -18.32 10.34 -19 10 C-17.5422647 9.664061 -16.08378894 9.33133376 -14.625 9 C-13.40683594 8.7215625 -13.40683594 8.7215625 -12.1640625 8.4375 C-10 8 -10 8 -8 8 C-8 7.34 -8 6.68 -8 6 C-6.824375 5.87625 -6.824375 5.87625 -5.625 5.75 C-2.86319488 5.27785697 -2.86319488 5.27785697 -1.75 3 C-1.5025 2.34 -1.255 1.68 -1 1 C-0.67 0.67 -0.34 0.34 0 0 Z " fill="#A7A7A9" transform="translate(107,70)"/>
<path d="M0 0 C-0.47811177 1.77111844 -0.9575278 3.54188483 -1.4375 5.3125 C-1.70433594 6.29863281 -1.97117188 7.28476563 -2.24609375 8.30078125 C-2.78079425 10.21517526 -3.37144538 12.11433615 -4 14 C-12.31674589 16.77620334 -21.28596598 17.53716669 -30 18 C-26.96857055 14.64716598 -23.95355204 12.73212431 -19.9375 10.6875 C-14.45879265 7.83065712 -9.28493104 4.70958071 -4.14453125 1.28515625 C-2 0 -2 0 0 0 Z " fill="#F2F2F4" transform="translate(137,130)"/>
<path d="M0 0 C2.15274948 -0.30840599 2.15274948 -0.30840599 4 -1 C4 -0.01 4 0.98 4 2 C3.01 2.495 3.01 2.495 2 3 C1.53248212 5.35599235 1.53248212 5.35599235 1.375 8.0625 C1.30023438 8.98160156 1.22546875 9.90070312 1.1484375 10.84765625 C1.09945312 11.55792969 1.05046875 12.26820312 1 13 C-0.65 13.33 -2.3 13.66 -4 14 C-4.144375 13.21625 -4.28875 12.4325 -4.4375 11.625 C-4.87798925 9.03578982 -4.87798925 9.03578982 -6 7 C-11.01535052 7.32960216 -11.01535052 7.32960216 -15 10 C-17.32275177 10.40047444 -19.65739357 10.7397104 -22 11 C-21.63677589 7.73098302 -20.30992401 5.50661422 -17.9296875 3.24609375 C-12.84232897 -0.03906287 -5.26465149 -3.50976766 0 0 Z " fill="#AFB0B2" transform="translate(87,28)"/>
<path d="M0 0 C3.28771612 1.54399753 6.24733837 3.39621687 9.25 5.4375 C10.14203125 6.03433594 11.0340625 6.63117188 11.953125 7.24609375 C12.62859375 7.82488281 13.3040625 8.40367188 14 9 C14 12 14 12 11.6875 14.6875 C9 17 9 17 6 17 C6 17.66 6 18.32 6 19 C3.69 19 1.38 19 -1 19 C-1.02714735 16.77090129 -1.04646254 14.54170633 -1.0625 12.3125 C-1.07990234 10.45044922 -1.07990234 10.45044922 -1.09765625 8.55078125 C-1.01478673 5.53764546 -0.70839449 2.91724661 0 0 Z " fill="#F5F5F6" transform="translate(93,59)"/>
<path d="M0 0 C0.2475 0.639375 0.495 1.27875 0.75 1.9375 C1.81562433 4.18741541 1.81562433 4.18741541 4.125 4.75 C4.74375 4.8325 5.3625 4.915 6 5 C5 7 4 9 3 11 C2.34 11 1.68 11 1 11 C1.47474775 13.14681531 1.95491749 15.29243228 2.4375 17.4375 C2.70433594 18.63246094 2.97117187 19.82742187 3.24609375 21.05859375 C3.70066748 23.8704686 3.70066748 23.8704686 5 25 C5.29430772 26.33630117 5.53661833 27.68419222 5.75390625 29.03515625 C5.88603516 29.84404297 6.01816406 30.65292969 6.15429688 31.48632812 C6.28900391 32.33646484 6.42371094 33.18660156 6.5625 34.0625 C6.77036133 35.34350586 6.77036133 35.34350586 6.98242188 36.65039062 C7.32523005 38.76634451 7.66307616 40.88310118 8 43 C2.35389968 37.7525159 2.11498722 29.72400648 0.78125 22.4609375 C0.13599006 19.60243596 -0.52852043 17.49897823 -2 15 C-2.66 15.99 -3.32 16.98 -4 18 C-5.20220203 14.46905698 -4.79532349 11.87101018 -4.0625 8.25 C-3.86785156 7.26515625 -3.67320313 6.2803125 -3.47265625 5.265625 C-3.31667969 4.51796875 -3.16070312 3.7703125 -3 3 C-2.01 3 -1.02 3 0 3 C0 2.01 0 1.02 0 0 Z " fill="#A7A6A7" transform="translate(52,76)"/>
<path d="M0 0 C6.3560893 6.3560893 6.85810682 21.24548563 8 30 C5.0375515 27.33565953 3.04496914 24.19801548 0.875 20.875 C-1.33590184 17.26200883 -1.33590184 17.26200883 -4 14 C-3.57823401 8.72792514 -2.21534483 4.71964769 0 0 Z " fill="#EDEEEE" transform="translate(50,90)"/>
<path d="M0 0 C0 1.32 0 2.64 0 4 C-1.98 4.66 -3.96 5.32 -6 6 C-6.33 5.34 -6.66 4.68 -7 4 C-7.91523437 4.28875 -8.83046875 4.5775 -9.7734375 4.875 C-11.55621094 5.431875 -11.55621094 5.431875 -13.375 6 C-14.55835937 6.37125 -15.74171875 6.7425 -16.9609375 7.125 C-20 8 -20 8 -22 8 C-22.28875 8.5775 -22.5775 9.155 -22.875 9.75 C-23.91666667 11.83333333 -24.95833333 13.91666667 -26 16 C-25.34 16.33 -24.68 16.66 -24 17 C-25.32 17.33 -26.64 17.66 -28 18 C-28 18.66 -28 19.32 -28 20 C-28.66 20 -29.32 20 -30 20 C-30.12117188 20.83144531 -30.24234375 21.66289063 -30.3671875 22.51953125 C-30.61855469 24.14955078 -30.61855469 24.14955078 -30.875 25.8125 C-31.03742187 26.89144531 -31.19984375 27.97039063 -31.3671875 29.08203125 C-32 32 -32 32 -34 35 C-33.98839844 34.39671875 -33.97679687 33.7934375 -33.96484375 33.171875 C-33.95582031 32.37265625 -33.94679687 31.5734375 -33.9375 30.75 C-33.92589844 29.96109375 -33.91429687 29.1721875 -33.90234375 28.359375 C-33.86951645 26.02111352 -33.86951645 26.02111352 -34.76171875 24.07421875 C-35.16360869 20.5757998 -32.97231265 18.73640503 -30.875 16.0625 C-30.08867188 15.04285156 -29.30234375 14.02320313 -28.4921875 12.97265625 C-27.66976562 11.99167969 -26.84734375 11.01070312 -26 10 C-25.27425781 9.10796875 -24.54851562 8.2159375 -23.80078125 7.296875 C-19.93877632 4.12970778 -16.11611558 3.2915714 -11.3125 2.1875 C-10.44560547 1.97158203 -9.57871094 1.75566406 -8.68554688 1.53320312 C-2.43105159 0 -2.43105159 0 0 0 Z " fill="#AAABAD" transform="translate(91,23)"/>
<path d="M0 0 C5.35514317 2.96293636 10.6931372 5.95137669 16 9 C15.34 9.66 14.68 10.32 14 11 C14.99 11.99 15.98 12.98 17 14 C12.14616379 15.11233747 8.58050692 15.22238884 3.93359375 13.29296875 C0.20418367 10.7991612 -2.01816135 6.95617034 -4 3 C-4 2.34 -4 1.68 -4 1 C-2.68 1.33 -1.36 1.66 0 2 C0 1.34 0 0.68 0 0 Z " fill="#ACACAE" transform="translate(66,129)"/>
<path d="M0 0 C0.66 0 1.32 0 2 0 C1.23299007 4.67510813 0.41652534 9.34008739 -0.4375 14 C-0.55931641 14.68578125 -0.68113281 15.3715625 -0.80664062 16.078125 C-1.56401908 20.19072927 -2.58049329 24.06716756 -4 28 C-6.45803787 25.0747318 -7.56538013 22.74130253 -8.3125 19 C-8.49425781 18.154375 -8.67601562 17.30875 -8.86328125 16.4375 C-9.01915816 13.65843746 -8.44522138 12.33833572 -7 10 C-6.34 10 -5.68 10 -5 10 C-4.731875 9.46375 -4.46375 8.9275 -4.1875 8.375 C-2.79166667 5.58333333 -1.39583333 2.79166667 0 0 Z " fill="#F1F2F2" transform="translate(55,50)"/>
<path d="M0 0 C1.11375 0.556875 2.2275 1.11375 3.375 1.6875 C4.46361328 2.22697266 4.46361328 2.22697266 5.57421875 2.77734375 C7.25399831 3.62399593 8.92273739 4.49277806 10.58203125 5.37890625 C11.44183594 5.83136719 12.30164063 6.28382812 13.1875 6.75 C13.98542969 7.17796875 14.78335938 7.6059375 15.60546875 8.046875 C18.24323919 9.09681951 20.18713184 9.17986368 23 9 C23.33 7.68 23.66 6.36 24 5 C25.32 5.33 26.64 5.66 28 6 C27.7525 7.11375 27.7525 7.11375 27.5 8.25 C26.88074304 11.19006578 26.88074304 11.19006578 27 15 C20.49799266 15 16.43064352 13.36699898 11 10 C11 9.34 11 8.68 11 8 C10.43796875 7.88785156 9.8759375 7.77570313 9.296875 7.66015625 C6.68486892 6.90942661 4.60528678 5.78832624 2.25 4.4375 C1.45078125 3.98246094 0.6515625 3.52742188 -0.171875 3.05859375 C-0.77515625 2.70925781 -1.3784375 2.35992187 -2 2 C-1.34 1.34 -0.68 0.68 0 0 Z " fill="#AFADB0" transform="translate(55,86)"/>
<path d="M0 0 C4.35887125 3.6472188 8.44906172 7.39864644 12.421875 11.4609375 C14.06761432 13.13423781 14.06761432 13.13423781 16.4375 14.8125 C16.953125 15.204375 17.46875 15.59625 18 16 C18 16.66 18 17.32 18 18 C7.14675768 15.90102389 7.14675768 15.90102389 3.375 12.9375 C1.4220361 8.76525893 0.66966083 4.53783328 0 0 Z " fill="#F0F0F1" transform="translate(136,28)"/>
<path d="M0 0 C0.99 1.485 0.99 1.485 2 3 C2.99 3 3.98 3 5 3 C10.74031891 18.74487472 10.74031891 18.74487472 10 26 C9.67 26 9.34 26 9 26 C9 24.02 9 22.04 9 20 C7.35 20 5.7 20 4 20 C3.67 18.35 3.34 16.7 3 15 C2.01 14.67 1.02 14.34 0 14 C0 9.38 0 4.76 0 0 Z " fill="#B4B5B6" transform="translate(161,63)"/>
<path d="M0 0 C0 0.66 0 1.32 0 2 C-1.46875 3.4453125 -1.46875 3.4453125 -3.5 5.125 C-7.3499234 8.37893881 -10.86064335 11.84772718 -14.3359375 15.49609375 C-16 17 -16 17 -18 17 C-17.57781184 15.3501725 -17.13675575 13.70516335 -16.6875 12.0625 C-16.44386719 11.14597656 -16.20023438 10.22945312 -15.94921875 9.28515625 C-15.63597656 8.53105469 -15.32273438 7.77695313 -15 7 C-14.01 6.67 -13.02 6.34 -12 6 C-11.67 5.01 -11.34 4.02 -11 3 C-9.00390625 2.05078125 -9.00390625 2.05078125 -6.5625 1.3125 C-5.75941406 1.06113281 -4.95632812 0.80976562 -4.12890625 0.55078125 C-2 0 -2 0 0 0 Z " fill="#EDECED" transform="translate(154,123)"/>
<path d="M0 0 C0 0.99 0 1.98 0 3 C-0.86044922 3.11214844 -0.86044922 3.11214844 -1.73828125 3.2265625 C-9.15635461 4.37473167 -16.05213574 6.51822403 -23.09692383 9.05517578 C-28.55644927 10.91260436 -32.32912128 11.12121373 -38 10 C-38 9.67 -38 9.34 -38 9 C-36.7625 8.7525 -35.525 8.505 -34.25 8.25 C-29.32277925 7.16368361 -24.62802039 5.57923922 -19.859375 3.9453125 C-16.2698735 2.75861938 -12.67789417 1.87272065 -9 1 C-7.70707895 0.60828332 -6.4153547 0.21258944 -5.125 -0.1875 C-2 -1 -2 -1 0 0 Z " fill="#AFB0B1" transform="translate(133,44)"/>
<path d="M0 0 C3.72082118 -0.27225521 5.87263168 -0.05767622 9.3125 1.5 C13.29546542 3.12018932 15.79063512 3.16442223 19.984375 2.8125 C22 3 22 3 23.78515625 4.36328125 C25 6 25 6 24.6875 8.1875 C24.460625 8.785625 24.23375 9.38375 24 10 C20.25 11.125 20.25 11.125 18 10 C18 9.01 18 8.02 18 7 C17.45472656 6.90203125 16.90945312 6.8040625 16.34765625 6.703125 C10.48190953 5.54000257 5.36881656 3.61460097 0 1 C0 0.67 0 0.34 0 0 Z " fill="#AEAEAF" transform="translate(118,119)"/>
<path d="M0 0 C0.66 0.33 1.32 0.66 2 1 C2 1.66 2 2.32 2 3 C1.01 3.495 1.01 3.495 0 4 C-0.46751788 6.35599235 -0.46751788 6.35599235 -0.625 9.0625 C-0.69976562 9.98160156 -0.77453125 10.90070312 -0.8515625 11.84765625 C-0.90054688 12.55792969 -0.94953125 13.26820312 -1 14 C-2.65 14.33 -4.3 14.66 -6 15 C-6.144375 14.21625 -6.28875 13.4325 -6.4375 12.625 C-6.87798925 10.03578982 -6.87798925 10.03578982 -8 8 C-8.99 7.67 -9.98 7.34 -11 7 C-7.53252172 4.22601737 -3.93597489 2.04087587 0 0 Z " fill="#EEEDEE" transform="translate(89,27)"/>
<path d="M0 0 C0.66 0.33 1.32 0.66 2 1 C1.01 2.485 1.01 2.485 0 4 C0.99 4.33 1.98 4.66 3 5 C2.34 5.66 1.68 6.32 1 7 C3.97 7.495 3.97 7.495 7 8 C7 8.33 7 8.66 7 9 C0.62641289 9.96205088 -5.55929529 10.10655578 -12 10 C-8.29909479 6.0747975 -4.45040344 3.05419844 0 0 Z " fill="#F3F3F4" transform="translate(70,72)"/>
<path d="M0 0 C1.65 0.33 3.3 0.66 5 1 C5 2.65 5 4.3 5 6 C4.34 6 3.68 6 3 6 C3.2165625 6.7734375 3.433125 7.546875 3.65625 8.34375 C5.27977446 14.4169341 6.36253225 19.71610769 6 26 C3.73155961 22.59733941 3.19810007 19.9907882 2.375 16 C2.11460938 14.7625 1.85421875 13.525 1.5859375 12.25 C1 9 1 9 1 6 C0.34 6 -0.32 6 -1 6 C-0.67 4.02 -0.34 2.04 0 0 Z " fill="#ACACAC" transform="translate(88,104)"/>
<path d="M0 0 C2.73810918 1.00699056 3.78924034 1.54859685 5.046875 4.2421875 C5.27890625 5.11101563 5.5109375 5.97984375 5.75 6.875 C5.99234375 7.73867188 6.2346875 8.60234375 6.484375 9.4921875 C7 12 7 12 7 16 C5.68 16.33 4.36 16.66 3 17 C0.74566386 11.43930418 0.40038172 5.9214349 0 0 Z " fill="#A9A9AB" transform="translate(159,50)"/>
<path d="M0 0 C0.2475 0.639375 0.495 1.27875 0.75 1.9375 C1.81562433 4.18741541 1.81562433 4.18741541 4.125 4.75 C4.74375 4.8325 5.3625 4.915 6 5 C4.7251791 7.84383123 3.54862922 10.13754018 1 12 C-1.1875 11.6875 -1.1875 11.6875 -3 11 C-3.79953138 7.71303767 -4.09658936 6.28976808 -3 3 C-2.01 3 -1.02 3 0 3 C0 2.01 0 1.02 0 0 Z " fill="#A69D9E" transform="translate(52,76)"/>
<path d="M0 0 C0.66 0.33 1.32 0.66 2 1 C2.09289153 6.29481709 1.76541303 10.64210878 1 16 C9.91 16 18.82 16 28 16 C28.33 15.34 28.66 14.68 29 14 C29 14.99 29 15.98 29 17 C19.43 17 9.86 17 0 17 C-1.125 4.625 -1.125 4.625 0 0 Z " fill="#B4B5B6" transform="translate(133,67)"/>
<path d="M0 0 C1.78474336 3.02462107 2.20634403 4.76904235 1.609375 8.22265625 C1.47660156 9.00833984 1.34382813 9.79402344 1.20703125 10.60351562 C1.05621094 11.41498047 0.90539063 12.22644531 0.75 13.0625 C0.61464844 13.87783203 0.47929688 14.69316406 0.33984375 15.53320312 C-0.33625592 19.37812509 -0.78895067 21.68342601 -3 25 C-3.99 24.67 -4.98 24.34 -6 24 C-5.73445313 23.10539062 -5.46890625 22.21078125 -5.1953125 21.2890625 C-3.1347105 14.23488484 -1.26801543 7.24103548 0 0 Z " fill="#AAABAB" transform="translate(56,54)"/>
<path d="M0 0 C0.33 0.99 0.66 1.98 1 3 C2.98 3 4.96 3 7 3 C5 5 5 5 2 7 C1.45524022 9.59270699 1.07599851 12.00451945 0.8125 14.625 C0.73064453 15.33140625 0.64878906 16.0378125 0.56445312 16.765625 C0.36419275 18.5090683 0.18050599 20.25440086 0 22 C-0.33 22 -0.66 22 -1 22 C-1 17.38 -1 12.76 -1 8 C-1.99 8 -2.98 8 -4 8 C-4.33 6.35 -4.66 4.7 -5 3 C-3.35 3 -1.7 3 0 3 C0 2.01 0 1.02 0 0 Z " fill="#A2A3A5" transform="translate(92,51)"/>
<path d="M0 0 C2.12406054 3.62013796 2.85012346 7.42794469 3.625 11.5 C3.82609375 12.49580078 3.82609375 12.49580078 4.03125 13.51171875 C4.66826364 16.7682885 5 19.66414099 5 23 C3.68 22.67 2.36 22.34 1 22 C0.63604195 19.2718186 0.28355188 16.54296095 -0.0625 13.8125 C-0.16626953 13.04357422 -0.27003906 12.27464844 -0.37695312 11.48242188 C-0.88416982 7.40719806 -1.15145497 4.01801421 0 0 Z " fill="#B8B8B9" transform="translate(94,125)"/>
<path d="M0 0 C1.32 0.33 2.64 0.66 4 1 C3.835 1.7425 3.67 2.485 3.5 3.25 C2.88074304 6.19006578 2.88074304 6.19006578 3 10 C-0.41321235 10 -1.39472885 9.33132534 -4.1875 7.5 C-4.90292969 7.0359375 -5.61835937 6.571875 -6.35546875 6.09375 C-7.16951172 5.55234375 -7.16951172 5.55234375 -8 5 C-5.53721199 3.768606 -3.7204945 3.92840804 -1 4 C-0.67 2.68 -0.34 1.36 0 0 Z " fill="#E8E5E6" transform="translate(79,91)"/>
<path d="M0 0 C0.33 0.99 0.66 1.98 1 3 C-0.55961362 3.96302356 -2.12283225 4.92021004 -3.6875 5.875 C-4.55761719 6.40867187 -5.42773438 6.94234375 -6.32421875 7.4921875 C-8.83391082 8.90640814 -11.30299069 9.99894789 -14 11 C-14 12.32 -14 13.64 -14 15 C-14.66 15 -15.32 15 -16 15 C-16.3125 12.1875 -16.3125 12.1875 -16 9 C-13.84375 7.5 -13.84375 7.5 -11 6 C-10.04480469 5.47019531 -9.08960937 4.94039063 -8.10546875 4.39453125 C-7.14253906 3.87246094 -6.17960937 3.35039063 -5.1875 2.8125 C-4.21167969 2.28269531 -3.23585938 1.75289063 -2.23046875 1.20703125 C-1.49441406 0.80871094 -0.75835937 0.41039063 0 0 Z " fill="#AEACAE" transform="translate(109,95)"/>
<path d="M0 0 C5.05505417 1.29616774 8.74573824 3.69085827 12.94921875 6.66015625 C15.05389843 8.15915825 15.05389843 8.15915825 18 9 C17.67 10.32 17.34 11.64 17 13 C17 12.34 17 11.68 17 11 C15.71222656 10.60167969 15.71222656 10.60167969 14.3984375 10.1953125 C10.97089192 8.98976199 7.85826202 7.52755614 4.625 5.875 C3.56539063 5.33617187 2.50578125 4.79734375 1.4140625 4.2421875 C0.61742188 3.83226562 -0.17921875 3.42234375 -1 3 C-0.67 2.01 -0.34 1.02 0 0 Z " fill="#AEADAF" transform="translate(117,30)"/>
<path d="M0 0 C-2.28874173 1.33858524 -4.58069656 2.67101014 -6.875 4 C-7.52597656 4.3815625 -8.17695312 4.763125 -8.84765625 5.15625 C-13.7734375 8 -13.7734375 8 -16 8 C-14.7016661 5.10371669 -13.54677947 2.9320396 -11 1 C-6.86796526 -0.50255809 -4.19988393 -1.29227198 0 0 Z " fill="#EAEBED" transform="translate(82,29)"/>
<path d="M0 0 C0.33 0 0.66 0 1 0 C1 7.26 1 14.52 1 22 C1.99 21.67 2.98 21.34 4 21 C3.47535095 25.61691161 2.92509086 27.09987886 0 31 C0 20.77 0 10.54 0 0 Z " fill="#9F9FA0" transform="translate(44,72)"/>
<path d="M0 0 C3.75131012 1.76423001 7.23536211 3.93897248 10.75 6.125 C11.35199219 6.49753906 11.95398438 6.87007812 12.57421875 7.25390625 C14.05042343 8.16774724 15.52534154 9.08366598 17 10 C12.97422096 11.34192635 11.68514672 10.22377833 7.9375 8.375 C6.87402344 7.86710938 5.81054688 7.35921875 4.71484375 6.8359375 C1.67522898 4.78037068 0.95643378 3.48118135 0 0 Z " fill="#EAEAEB" transform="translate(66,132)"/>
<path d="M0 0 C-1.59219306 3.18438611 -4.84591952 4.07645785 -7.9375 5.5625 C-8.58396484 5.87896484 -9.23042969 6.19542969 -9.89648438 6.52148438 C-11.59534785 7.35239268 -13.29748408 8.17660139 -15 9 C-15.99 9.495 -15.99 9.495 -17 10 C-17.66 9.34 -18.32 8.68 -19 8 C-18.31292969 7.59007812 -17.62585938 7.18015625 -16.91796875 6.7578125 C-16.01691406 6.21898437 -15.11585937 5.68015625 -14.1875 5.125 C-13.29417969 4.59132812 -12.40085937 4.05765625 -11.48046875 3.5078125 C-7.11879829 0.85646636 -5.17715774 -0.2300959 0 0 Z " fill="#B4B5B7" transform="translate(124,137)"/>
<path d="M0 0 C7.26 0 14.52 0 22 0 C22 0.33 22 0.66 22 1 C19.81462633 1.50921328 17.62657569 2.00694437 15.4375 2.5 C14.21933594 2.7784375 13.00117187 3.056875 11.74609375 3.34375 C8.07777293 3.98637554 4.71497397 4.11474823 1 4 C0.67 2.68 0.34 1.36 0 0 Z " fill="#ABABAC" transform="translate(55,81)"/>
<path d="M0 0 C0.66 0.66 1.32 1.32 2 2 C2.66 1.34 3.32 0.68 4 0 C5.7479503 5.24385089 6.19392201 9.47322267 6 15 C5.67 15 5.34 15 5 15 C5 13.02 5 11.04 5 9 C3.35 9 1.7 9 0 9 C0 6.03 0 3.06 0 0 Z " fill="#BBBCBC" transform="translate(165,74)"/>
<path d="M0 0 C3.82852379 1.51761303 5.73321866 3.79343415 8.25 7 C8.95640625 7.886875 9.6628125 8.77375 10.390625 9.6875 C12 12 12 12 12 14 C10.0625 13.1875 10.0625 13.1875 8 12 C7.67 11.01 7.34 10.02 7 9 C6.34 9 5.68 9 5 9 C2.82796 6.03812728 1.16438003 3.49314009 0 0 Z " fill="#AFAFB1" transform="translate(123,107)"/>
<path d="M0 0 C0.66 1.32 1.32 2.64 2 4 C2.66 3.01 3.32 2.02 4 1 C2.28571429 14.71428571 2.28571429 14.71428571 -1 18 C-0.505 9.09 -0.505 9.09 0 0 Z " fill="#A1A2A4" transform="translate(162,99)"/>
<path d="M0 0 C1.2065625 0.0309375 1.2065625 0.0309375 2.4375 0.0625 C3.125 1.875 3.125 1.875 3.4375 4.0625 C2.25 5.875 2.25 5.875 0.4375 7.0625 C-1.75 6.75 -1.75 6.75 -3.5625 6.0625 C-3.605221 4.39638095 -3.60313832 2.72867115 -3.5625 1.0625 C-2.5625 0.0625 -2.5625 0.0625 0 0 Z " fill="#937E7F" transform="translate(139.5625,122.9375)"/>
<path d="M0 0 C0.99 0 1.98 0 3 0 C2.9278125 0.88042969 2.855625 1.76085937 2.78125 2.66796875 C2.6884375 3.82941406 2.595625 4.99085937 2.5 6.1875 C2.4071875 7.33605469 2.314375 8.48460938 2.21875 9.66796875 C2.0354038 12.46072426 1.95786363 15.20319812 2 18 C1.67 16.68 1.34 15.36 1 14 C0.34 14 -0.32 14 -1 14 C-1.02705729 12.22925083 -1.04642195 10.45838289 -1.0625 8.6875 C-1.07410156 7.70136719 -1.08570313 6.71523437 -1.09765625 5.69921875 C-1 3 -1 3 0 0 Z " fill="#C9CACD" transform="translate(165,86)"/>
<path d="M0 0 C0 1.32 0 2.64 0 4 C-3.63 4 -7.26 4 -11 4 C-11 7.63 -11 11.26 -11 15 C-11.33 15 -11.66 15 -12 15 C-12 11.37 -12 7.74 -12 4 C-12.66 3.67 -13.32 3.34 -14 3 C-12.23050388 2.49528803 -10.45934777 1.99639315 -8.6875 1.5 C-7.70136719 1.2215625 -6.71523437 0.943125 -5.69921875 0.65625 C-3 0 -3 0 0 0 Z " fill="#9A9497" transform="translate(102,77)"/>
<path d="M0 0 C0 1.32 0 2.64 0 4 C-1.98 4.66 -3.96 5.32 -6 6 C-6.33 5.34 -6.66 4.68 -7 4 C-8.98 4.33 -10.96 4.66 -13 5 C-10.09527326 1.00600073 -4.73773335 0 0 0 Z " fill="#A3A4A6" transform="translate(91,23)"/>
<path d="M0 0 C1.65 0.33 3.3 0.66 5 1 C5 2.65 5 4.3 5 6 C1.25 7.125 1.25 7.125 -1 6 C-0.67 4.02 -0.34 2.04 0 0 Z " fill="#917A7D" transform="translate(88,104)"/>
<path d="M0 0 C1.625 2 1.625 2 3 4 C2.01 4 1.02 4 0 4 C-0.33 4.99 -0.66 5.98 -1 7 C-3.0625 7.6875 -3.0625 7.6875 -5 8 C-5.75 6.25 -5.75 6.25 -6 4 C-2.77777778 0 -2.77777778 0 0 0 Z " fill="#C9BEC2" transform="translate(148,90)"/>
<path d="M0 0 C0.33 0 0.66 0 1 0 C1.99 5.94 2.98 11.88 4 18 C0.76169533 14.76169533 -0.02396986 13.39213561 -1 9 C-0.87094278 5.96219147 -0.49312338 2.99872325 0 0 Z " fill="#B2B2B2" transform="translate(56,101)"/>
<path d="M0 0 C1.67542976 0.28604898 3.34385343 0.61781233 5 1 C4.67 2.65 4.34 4.3 4 6 C2.68 6 1.36 6 0 6 C-0.38218767 4.34385343 -0.71395102 2.67542976 -1 1 C-0.67 0.67 -0.34 0.34 0 0 Z " fill="#947E80" transform="translate(133,61)"/>
<path d="M0 0 C0.33 0 0.66 0 1 0 C0.85795259 1.58367747 0.71119847 3.16693318 0.5625 4.75 C0.48128906 5.63171875 0.40007812 6.5134375 0.31640625 7.421875 C0.03761535 9.69350452 -0.38790577 11.79851823 -1 14 C-1.66 14 -2.32 14 -3 14 C-3.28999065 5.44527596 -3.28999065 5.44527596 -1 1 C-0.67 0.67 -0.34 0.34 0 0 Z " fill="#B0B1B2" transform="translate(138,47)"/>
<path d="M0 0 C0.66 0.33 1.32 0.66 2 1 C1.67 1.66 1.34 2.32 1 3 C5.29 3 9.58 3 14 3 C14 3.33 14 3.66 14 4 C7.62641289 4.96205088 1.44070471 5.10655578 -5 5 C-3.35 3.35 -1.7 1.7 0 0 Z " fill="#E4E4E6" transform="translate(63,77)"/>
<path d="M0 0 C1.65 0 3.3 0 5 0 C6.125 3.75 6.125 3.75 5 6 C3.35 6 1.7 6 0 6 C0 4.02 0 2.04 0 0 Z " fill="#927B7E" transform="translate(136,40)"/>
<path d="M0 0 C2.41660711 3.62491066 3.18641933 5.46579038 2.66015625 9.796875 C2.46292969 10.77140625 2.26570313 11.7459375 2.0625 12.75 C1.86785156 13.73484375 1.67320313 14.7196875 1.47265625 15.734375 C1.31667969 16.48203125 1.16070312 17.2296875 1 18 C0.67 18 0.34 18 0 18 C0 12.06 0 6.12 0 0 Z " fill="#F0EBEB" transform="translate(46,75)"/>
<path d="M0 0 C1.65 0.33 3.3 0.66 5 1 C4.67 2.65 4.34 4.3 4 6 C2.35 5.67 0.7 5.34 -1 5 C-0.67 3.35 -0.34 1.7 0 0 Z " fill="#967C7D" transform="translate(83,36)"/>
<path d="M0 0 C1.32 0 2.64 0 4 0 C5.81975482 5.12839994 3.8599099 9.17684382 2 14 C1.67 14 1.34 14 1 14 C1.14084796 12.20793453 1.28783701 10.41635083 1.4375 8.625 C1.55931641 7.12839844 1.55931641 7.12839844 1.68359375 5.6015625 C2 3 2 3 3 1 C2.01 0.67 1.02 0.34 0 0 Z " fill="#ADAFAF" transform="translate(165,85)"/>
<path d="M0 0 C3.3 1.65 6.6 3.3 10 5 C10 5.99 10 6.98 10 8 C5.76570244 6.68938409 1.92592596 5.05643741 -2 3 C-1.34 2.67 -0.68 2.34 0 2 C0 1.34 0 0.68 0 0 Z " fill="#B1B2B3" transform="translate(63,41)"/>
<path d="M0 0 C1.32 0.33 2.64 0.66 4 1 C3.67 2.98 3.34 4.96 3 7 C1.68 6.67 0.36 6.34 -1 6 C-1 2 -1 2 0 0 Z " fill="#8E7879" transform="translate(50,81)"/>
<path d="M0 0 C0.99 0.33 1.98 0.66 3 1 C2.34 1 1.68 1 1 1 C1 1.99 1 2.98 1 4 C1.66 4 2.32 4 3 4 C1.48601545 7.78496138 0.9855604 8.0072198 -3 10 C-2.01 6.7 -1.02 3.4 0 0 Z " fill="#E7EAE9" transform="translate(139,130)"/>
<path d="M0 0 C3.77727089 1.81309003 7.37269822 3.9073259 11 6 C10.01 6.66 9.02 7.32 8 8 C5.03 6.35 2.06 4.7 -1 3 C-0.67 2.01 -0.34 1.02 0 0 Z " fill="#B4B4B5" transform="translate(67,93)"/>
<path d="M0 0 C3.4297456 0.63513807 6.70466931 1.87659181 10 3 C9.01 3.495 9.01 3.495 8 4 C8 4.66 8 5.32 8 6 C4.22454612 4.90931332 1.52956528 4.0916909 -1 1 C-0.67 0.67 -0.34 0.34 0 0 Z " fill="#A1A2A5" transform="translate(89,145)"/>
<path d="M0 0 C1.98 1.65 3.96 3.3 6 5 C4.515 7.475 4.515 7.475 3 10 C0.70366176 6.55549263 0.45983515 4.06187717 0 0 Z " fill="#E9E9EB" transform="translate(136,28)"/>
<path d="M0 0 C5.15464734 0.48324819 8.81550319 3.18610761 13 6 C10 7 10 7 7.51953125 6.00390625 C6.62621094 5.52824219 5.73289062 5.05257813 4.8125 4.5625 C3.91144531 4.08941406 3.01039062 3.61632812 2.08203125 3.12890625 C1.39496094 2.75636719 0.70789063 2.38382813 0 2 C0 1.34 0 0.68 0 0 Z " fill="#A8A9AB" transform="translate(105,25)"/>
<path d="M0 0 C0.433125 0.45375 0.86625 0.9075 1.3125 1.375 C3.10798342 3.20024334 3.10798342 3.20024334 6 5 C3.03 5.66 0.06 6.32 -3 7 C-2 3 -2 3 0 0 Z " fill="#E8EAEB" transform="translate(146,117)"/>
<path d="M0 0 C0.99 0.33 1.98 0.66 3 1 C0.51047079 3.66735273 -1.63408134 5.55746343 -5 7 C-5.66 6.34 -6.32 5.68 -7 5 C-5.90554162 4.13342884 -4.79902219 3.28207276 -3.6875 2.4375 C-3.07261719 1.96183594 -2.45773438 1.48617187 -1.82421875 0.99609375 C-1.22222656 0.66738281 -0.62023438 0.33867188 0 0 Z " fill="#B2B2B4" transform="translate(63,74)"/>
<path d="M0 0 C0.99 0.33 1.98 0.66 3 1 C3 2.98 3 4.96 3 7 C-0.37462715 6.45276317 -2.08235 5.9451 -5 4 C-4.0409375 3.8453125 -4.0409375 3.8453125 -3.0625 3.6875 C-2.381875 3.460625 -1.70125 3.23375 -1 3 C-0.67 2.01 -0.34 1.02 0 0 Z " fill="#E9EBEA" transform="translate(89,47)"/>
<path d="M0 0 C0.66 0.33 1.32 0.66 2 1 C1.67 1.99 1.34 2.98 1 4 C1.66 4.33 2.32 4.66 3 5 C1.68 5.33 0.36 5.66 -1 6 C-1 6.66 -1 7.32 -1 8 C-1.99 8.33 -2.98 8.66 -4 9 C-2.25 2.25 -2.25 2.25 0 0 Z " fill="#A1A3A4" transform="translate(64,35)"/>
<path d="M0 0 C3.77545388 1.09068668 6.47043472 1.9083091 9 5 C5.59068103 6.13643966 4.99664544 5.86747764 1.8125 4.5625 C1.09707031 4.27503906 0.38164063 3.98757812 -0.35546875 3.69140625 C-0.89816406 3.46324219 -1.44085938 3.23507813 -2 3 C-1.34 2.01 -0.68 1.02 0 0 Z " fill="#B5B6B7" transform="translate(70,138)"/>
<path d="M0 0 C0.66 0.33 1.32 0.66 2 1 C0.02 3.31 -1.96 5.62 -4 8 C-4.99 7.67 -5.98 7.34 -7 7 C-5.55609075 3.19333016 -3.65047197 1.73397418 0 0 Z " fill="#EAEBEC" transform="translate(71,121)"/>
<path d="M0 0 C3.24732932 1.62366466 3.70155136 4.75387839 5 8 C4.34 8.66 3.68 9.32 3 10 C0 5.25 0 5.25 0 3 C-0.66 3 -1.32 3 -2 3 C-1 1 -1 1 0 0 Z " fill="#B7B8B8" transform="translate(143,48)"/>
<path d="M0 0 C1.45606519 4.52092968 0.27032841 7.51648796 -1 12 C-2.32 11.67 -3.64 11.34 -5 11 C-3.25 5.25 -3.25 5.25 -1 3 C-0.67 2.01 -0.34 1.02 0 0 Z " fill="#BFC1C0" transform="translate(55,67)"/>
<path d="M0 0 C0.66 0.99 1.32 1.98 2 3 C1.01 3.33 0.02 3.66 -1 4 C-2.20882096 6.00016466 -2.20882096 6.00016466 -3 8 C-3.99 7.67 -4.98 7.34 -6 7 C-4.02 4.69 -2.04 2.38 0 0 Z " fill="#B5B5B6" transform="translate(125,53)"/>
<path d="M0 0 C0.33 0 0.66 0 1 0 C1.33 3.63 1.66 7.26 2 11 C4.475 11.99 4.475 11.99 7 13 C7 13.33 7 13.66 7 14 C4.69 14 2.38 14 0 14 C0 9.38 0 4.76 0 0 Z " fill="#E1E1E1" transform="translate(92,64)"/>
<path d="M0 0 C4.2742558 1.5830577 6.26531794 4.50568404 9 8 C4.75153925 7.52794881 2.73180712 5.11122478 0 2 C0 1.34 0 0.68 0 0 Z " fill="#A5A8A9" transform="translate(140,30)"/>
<path d="M0 0 C0.99 0 1.98 0 3 0 C3 0.66 3 1.32 3 2 C4.65 2 6.3 2 8 2 C8 2.33 8 2.66 8 3 C2.06 3.495 2.06 3.495 -4 4 C-2.68 2.68 -1.36 1.36 0 0 Z " fill="#E3E4E7" transform="translate(111,144)"/>
<path d="M0 0 C3.80909895 0.32417863 5.78372163 0.85581442 9 3 C4.70700357 4.26264601 2.12168689 3.62950412 -2 2 C-1.34 1.34 -0.68 0.68 0 0 Z " fill="#B8B8BA" transform="translate(113,116)"/>
<path d="M0 0 C4.7517398 0.43197635 6.92000054 1.32769295 10 5 C6.44219804 4.39009109 3.3171411 3.4216319 0 2 C0 1.34 0 0.68 0 0 Z " fill="#E3E3E5" transform="translate(73,138)"/>
<path d="M0 0 C0.33 1.32 0.66 2.64 1 4 C-1.35968744 6.09749995 -2.54616994 6.96905704 -5.75 7.1875 C-6.86375 7.0946875 -6.86375 7.0946875 -8 7 C-5 5 -5 5 -3 5 C-2.690625 4.360625 -2.38125 3.72125 -2.0625 3.0625 C-1 1 -1 1 0 0 Z " fill="#B3B1B2" transform="translate(107,70)"/>
<path d="M0 0 C0.99 0.33 1.98 0.66 3 1 C2.67 2.32 2.34 3.64 2 5 C0.68 4.67 -0.64 4.34 -2 4 C-2 3.01 -2 2.02 -2 1 C-1.34 0.67 -0.68 0.34 0 0 Z " fill="#A19494" transform="translate(111,129)"/>
<path d="M0 0 C-1.6875 2.0625 -1.6875 2.0625 -4 4 C-6.6875 3.875 -6.6875 3.875 -9 3 C-9.33 2.34 -9.66 1.68 -10 1 C-6.59437148 0.22157062 -3.49234244 -0.09978121 0 0 Z " fill="#A7A3A5" transform="translate(140,122)"/>
<path d="M0 0 C3 3.625 3 3.625 3 7 C0.69 6.67 -1.62 6.34 -4 6 C-2.68 4.02 -1.36 2.04 0 0 Z " fill="#BAB7BB" transform="translate(138,116)"/>
<path d="M0 0 C0.99 0.33 1.98 0.66 3 1 C1.6875 3 1.6875 3 0 5 C-0.99 5 -1.98 5 -3 5 C-2.625 3.0625 -2.625 3.0625 -2 1 C-1.34 0.67 -0.68 0.34 0 0 Z " fill="#ECEAEB" transform="translate(97,104)"/>
<path d="M0 0 C2.31 0 4.62 0 7 0 C4.47211993 2.79872437 2.79588866 4.45773019 -1 5 C-0.67 3.35 -0.34 1.7 0 0 Z " fill="#A3A4A7" transform="translate(111,92)"/>
<path d="M0 0 C2.875 -0.125 2.875 -0.125 6 0 C8 2 8 2 8 5 C4.62496331 3.8141763 2.35277269 2.72426311 0 0 Z " fill="#DDDEE0" transform="translate(105,23)"/>
<path d="M0 0 C0.33 0.66 0.66 1.32 1 2 C-5.75 1.25 -5.75 1.25 -8 -1 C-4.61951646 -2.20731555 -3.00565087 -1.96921954 0 0 Z " fill="#E3E2E6" transform="translate(134,121)"/>
<path d="M0 0 C2.09350689 3.4019487 2.17942163 6.05272412 2 10 C1.01 9.34 0.02 8.68 -1 8 C-0.67 5.36 -0.34 2.72 0 0 Z " fill="#E2E2E5" transform="translate(135,111)"/>
<path d="M0 0 C-0.375 1.9375 -0.375 1.9375 -1 4 C-1.99 4.495 -1.99 4.495 -3 5 C-3.66 4.67 -4.32 4.34 -5 4 C-5 3.01 -5 2.02 -5 1 C-3 0 -3 0 0 0 Z " fill="#F6F4F5" transform="translate(145,130)"/>
<path d="M0 0 C3.16115776 1.36983503 3.9927092 1.9890638 6 5 C5.67 5.99 5.34 6.98 5 8 C0 2.25 0 2.25 0 0 Z " fill="#A8A8A8" transform="translate(123,107)"/>
<path d="M0 0 C2.0625 0.4375 2.0625 0.4375 4 1 C3 4 3 4 0.9375 5.1875 C0.298125 5.455625 -0.34125 5.72375 -1 6 C-1.042721 4.33388095 -1.04063832 2.66617115 -1 1 C-0.67 0.67 -0.34 0.34 0 0 Z " fill="#B5B6B8" transform="translate(159,90)"/>
<path d="M0 0 C1.32 0.33 2.64 0.66 4 1 C3.67 2.32 3.34 3.64 3 5 C2.01 5 1.02 5 0 5 C0 3.35 0 1.7 0 0 Z " fill="#A08F91" transform="translate(79,91)"/>
<path d="M0 0 C0.99 0 1.98 0 3 0 C2.34 2.97 1.68 5.94 1 9 C0.67 9 0.34 9 0 9 C0 6.03 0 3.06 0 0 Z " fill="#EEEFF3" transform="translate(165,86)"/>
<path d="M0 0 C2.76223278 2.76223278 2.57856291 5.20706617 3 9 C2.01 9 1.02 9 0 9 C0 6.03 0 3.06 0 0 Z " fill="#EBECEE" transform="translate(165,74)"/>
<path d="M0 0 C2.02045442 0.60183749 4.02111039 1.27306096 6 2 C6.33 2.66 6.66 3.32 7 4 C5.25 4.6875 5.25 4.6875 3 5 C0.75 3.5625 0.75 3.5625 -1 2 C-0.67 1.34 -0.34 0.68 0 0 Z " fill="#B7B9B9" transform="translate(117,30)"/>
<path d="M0 0 C0.66 0.33 1.32 0.66 2 1 C1.67 2.98 1.34 4.96 1 7 C-0.5 5.625 -0.5 5.625 -2 4 C-2 3.34 -2 2.68 -2 2 C-1.34 2 -0.68 2 0 2 C0 1.34 0 0.68 0 0 Z " fill="#A2A2A4" transform="translate(58,118)"/>
<path d="M0 0 C0.33 0.99 0.66 1.98 1 3 C1.99 3 2.98 3 4 3 C3.67 3.99 3.34 4.98 3 6 C2.67 5.67 2.34 5.34 2 5 C1.34 5.99 0.68 6.98 0 8 C-0.98120464 4.94736336 -0.98120464 3.05263664 0 0 Z " fill="#B5B3B1" transform="translate(48,86)"/>
<path d="M0 0 C1.61949011 2.57213134 2.04408751 3.67669159 1.625 6.75 C1.41875 7.4925 1.2125 8.235 1 9 C0.34 9 -0.32 9 -1 9 C-1.125 2.25 -1.125 2.25 0 0 Z " fill="#B5B6B8" transform="translate(56,54)"/>
<path d="M0 0 C1.98 0.99 1.98 0.99 4 2 C4 2.66 4 3.32 4 4 C3.34 4 2.68 4 2 4 C2 6.31 2 8.62 2 11 C1.67 11 1.34 11 1 11 C0.67 7.37 0.34 3.74 0 0 Z " fill="#BDBDBF" transform="translate(159,50)"/>
</svg>
