<svg version="1.1" id="Layer_1" xmlns="http://www.w3.org/2000/svg" xmlns:xlink="http://www.w3.org/1999/xlink" x="0px" y="0px"
	 width="100%" viewBox="0 0 180 180" enable-background="new 0 0 180 180" xml:space="preserve">
<path fill="#F38527" opacity="1.000000" stroke="none" 
	d="
M109.000000,181.000000 
	C72.666672,181.000000 36.833336,181.000000 1.000005,181.000000 
	C1.000003,121.000008 1.000003,61.000011 1.000002,1.000013 
	C60.999989,1.000009 120.999977,1.000009 180.999969,1.000004 
	C180.999985,60.999985 180.999985,120.999969 181.000000,180.999969 
	C157.166672,181.000000 133.333328,181.000000 109.000000,181.000000 
M73.135422,73.747421 
	C75.774284,77.369431 78.814293,80.768089 80.978218,84.654533 
	C88.006577,97.277626 87.468765,110.894859 85.501793,124.600349 
	C85.126801,127.213158 84.003281,129.817459 84.149284,132.372894 
	C84.254349,134.211792 85.556007,137.047836 86.936562,137.479446 
	C88.674820,138.022919 91.554390,137.141830 93.001984,135.834793 
	C94.880867,134.138336 95.834480,131.417099 97.761719,128.800125 
	C104.503990,118.198639 111.246262,107.597160 118.554466,96.640800 
	C118.938286,96.109818 119.337479,95.589203 119.703621,95.046295 
	C125.370811,86.642975 131.033722,78.236778 136.813339,70.597130 
	C135.748260,73.780724 134.683182,76.964317 133.618118,80.147911 
	C134.170486,80.430664 134.722839,80.713417 135.275208,80.996170 
	C138.672913,75.335510 142.070618,69.674850 145.468323,64.014191 
	C145.133820,63.862701 144.799301,63.711212 144.464783,63.559723 
	C141.894745,65.635994 139.324707,67.712265 136.737885,69.080017 
	C138.836014,65.686813 141.381317,62.478931 142.888977,58.841022 
	C144.067871,55.996334 144.902023,52.381882 144.188171,49.536209 
	C143.267746,45.867184 139.429276,45.626534 135.880661,45.634388 
	C107.889259,45.696377 79.897636,45.652641 51.906078,45.639927 
	C49.240974,45.638718 46.473217,45.184002 43.945328,45.769585 
	C42.130451,46.189995 39.589382,47.772175 39.278042,49.240238 
	C38.930977,50.876724 40.741188,52.970722 42.084911,55.279449 
	C53.357258,59.488297 63.910770,64.938202 73.135422,73.747421 
z"/>
<path fill="#FDEED0" opacity="1.000000" stroke="none" 
	d="
M136.697617,69.831245 
	C131.033722,78.236778 125.370811,86.642975 119.703621,95.046295 
	C119.337479,95.589203 118.938286,96.109818 118.160126,96.713470 
	C117.765793,96.786133 117.542206,96.577499 117.613525,96.273689 
	C119.192612,93.211029 120.627632,90.409378 122.221115,87.700958 
	C128.167358,77.594215 134.192429,67.533844 140.134369,57.424595 
	C143.796524,51.193996 142.149033,48.247456 134.710571,47.929520 
	C134.493713,47.929131 134.060089,47.938629 133.648926,47.851250 
	C131.433975,47.520065 129.630554,47.067097 127.826324,47.063858 
	C100.932007,47.015560 74.037537,46.996452 47.143253,47.047726 
	C41.311367,47.058846 40.391327,48.749565 42.873856,54.134865 
	C42.357407,54.483639 41.984894,54.674606 41.612381,54.865574 
	C40.741188,52.970722 38.930977,50.876724 39.278042,49.240238 
	C39.589382,47.772175 42.130451,46.189995 43.945328,45.769585 
	C46.473217,45.184002 49.240974,45.638718 51.906078,45.639927 
	C79.897636,45.652641 107.889259,45.696377 135.880661,45.634388 
	C139.429276,45.626534 143.267746,45.867184 144.188171,49.536209 
	C144.902023,52.381882 144.067871,55.996334 142.888977,58.841022 
	C141.381317,62.478931 138.836014,65.686813 136.749649,69.465744 
	C136.761414,69.851463 136.697617,69.831245 136.697617,69.831245 
z"/>
<path fill="#FDF0D6" opacity="1.000000" stroke="none" 
	d="
M97.186371,129.136978 
	C95.834480,131.417099 94.880867,134.138336 93.001984,135.834793 
	C91.554390,137.141830 88.674820,138.022919 86.936562,137.479446 
	C85.556007,137.047836 84.254349,134.211792 84.149284,132.372894 
	C84.003281,129.817459 85.126801,127.213158 85.501793,124.600349 
	C87.468765,110.894859 88.006577,97.277626 80.978218,84.654533 
	C78.814293,80.768089 75.774284,77.369431 73.122284,73.318710 
	C73.109138,72.889999 73.334862,72.661568 73.663338,72.743263 
	C76.231308,75.144310 78.077751,78.604965 80.793869,79.540337 
	C86.098923,81.367310 85.489059,85.305717 85.904770,89.174179 
	C86.010674,90.159653 86.385002,91.120422 86.453041,92.105186 
	C87.008316,100.141075 87.622169,108.175117 88.005722,116.219841 
	C88.224251,120.803421 88.045235,125.405960 88.045235,129.184280 
	C87.679047,131.639633 87.415825,133.404510 87.152611,135.169403 
	C88.949654,134.447998 90.928123,133.993713 92.493172,132.930725 
	C94.087021,131.848190 95.274017,130.166595 96.774399,128.846909 
	C96.909653,128.946503 97.186371,129.136978 97.186371,129.136978 
z"/>
<path fill="#FDF0D6" opacity="1.000000" stroke="none" 
	d="
M41.848648,55.072510 
	C41.984894,54.674606 42.357407,54.483639 43.262238,54.157837 
	C50.537907,57.252934 57.514126,60.087379 63.933620,63.867329 
	C67.542274,65.992195 70.231445,69.678642 73.334862,72.661568 
	C73.334862,72.661568 73.109138,72.889999 72.996094,73.004036 
	C63.910770,64.938202 53.357258,59.488297 41.848648,55.072510 
z"/>
<path fill="#FDEED0" opacity="1.000000" stroke="none" 
	d="
M117.877167,96.890907 
	C111.246262,107.597160 104.503990,118.198639 97.474045,128.968552 
	C97.186371,129.136978 96.909653,128.946503 96.870270,128.490234 
	C97.797256,125.975548 98.576477,123.800423 99.771378,121.884560 
	C101.858688,118.537842 104.166580,115.325775 106.445465,112.102127 
	C110.117279,106.908096 113.840622,101.750488 117.542206,96.577499 
	C117.542206,96.577499 117.765793,96.786133 117.877167,96.890907 
z"/>
<path fill="#FA811E" opacity="1.000000" stroke="none" 
	d="
M136.758026,69.820000 
	C139.324707,67.712265 141.894745,65.635994 144.464783,63.559723 
	C144.799301,63.711212 145.133820,63.862701 145.468323,64.014191 
	C142.070618,69.674850 138.672913,75.335510 135.275208,80.996170 
	C134.722839,80.713417 134.170486,80.430664 133.618118,80.147911 
	C134.683182,76.964317 135.748260,73.780724 136.755478,70.214188 
	C136.697617,69.831245 136.761414,69.851463 136.758026,69.820000 
z"/>
<path fill="#FDFEFD" opacity="1.000000" stroke="none" 
	d="
M117.613525,96.273682 
	C113.840622,101.750488 110.117279,106.908096 106.445465,112.102127 
	C104.166580,115.325775 101.858688,118.537842 99.771378,121.884560 
	C98.576477,123.800423 97.797256,125.975548 96.735016,128.390625 
	C95.274017,130.166595 94.087021,131.848190 92.493172,132.930725 
	C90.928123,133.993713 88.949654,134.447998 87.152611,135.169403 
	C87.415825,133.404510 87.679047,131.639633 88.045235,129.184280 
	C88.045235,125.405960 88.224251,120.803421 88.005722,116.219841 
	C87.622169,108.175117 87.008316,100.141075 86.453041,92.105186 
	C86.385002,91.120422 86.010674,90.159653 85.904770,89.174179 
	C85.489059,85.305717 86.098923,81.367310 80.793869,79.540337 
	C78.077751,78.604965 76.231308,75.144310 73.663338,72.743263 
	C70.231445,69.678642 67.542274,65.992195 63.933620,63.867329 
	C57.514126,60.087379 50.537907,57.252934 43.406174,54.000034 
	C40.391327,48.749565 41.311367,47.058846 47.143253,47.047726 
	C74.037537,46.996452 100.932007,47.015560 127.826324,47.063858 
	C129.630554,47.067097 131.433975,47.520065 133.529221,48.128716 
	C133.978928,49.441338 134.137192,50.389107 134.295441,51.336880 
	C134.731689,51.230556 135.167953,51.124229 135.604202,51.017906 
	C135.378601,49.988571 135.153015,48.959240 134.927429,47.929905 
	C142.149033,48.247456 143.796524,51.193996 140.134369,57.424595 
	C134.192429,67.533844 128.167358,77.594215 122.221115,87.700958 
	C120.627632,90.409378 119.192612,93.211029 117.613525,96.273682 
z"/>
<path fill="#FFFBF1" opacity="1.000000" stroke="none" 
	d="
M134.710571,47.929520 
	C135.153015,48.959240 135.378601,49.988571 135.604202,51.017906 
	C135.167953,51.124229 134.731689,51.230556 134.295441,51.336880 
	C134.137192,50.389107 133.978928,49.441338 133.940369,48.216095 
	C134.060089,47.938629 134.493713,47.929131 134.710571,47.929520 
z"/>
</svg>